M48
; DRILL file {KiCad 9.0.6} date 2025-11-13T11:26:09-0500
; FORMAT={-:-/ absolute / metric / decimal}
; #@! TF.CreationDate,2025-11-13T11:26:09-05:00
; #@! TF.GenerationSoftware,Kicad,Pcbnew,9.0.6
; #@! TF.FileFunction,Plated,1,2,PTH
FMAT,2
METRIC
; #@! TA.AperFunction,Plated,PTH,ComponentDrill
T1C0.750
; #@! TA.AperFunction,Plated,PTH,ComponentDrill
T2C0.800
; #@! TA.AperFunction,Plated,PTH,ComponentDrill
T3C0.889
; #@! TA.AperFunction,Plated,PTH,ComponentDrill
T4C1.000
; #@! TA.AperFunction,Plated,PTH,ComponentDrill
T5C1.100
; #@! TA.AperFunction,Plated,PTH,ComponentDrill
T6C1.300
; #@! TA.AperFunction,Plated,PTH,ComponentDrill
T7C1.500
%
G90
G05
T1
X108.45Y-103.5
X108.45Y-105.5
X108.5Y-123.5
X108.5Y-125.5
T2
X61.19Y-125.0
X62.19Y-90.0
X62.19Y-94.05
X62.19Y-97.7
X68.81Y-125.0
X69.69Y-97.7
X69.81Y-90.0
X69.81Y-94.05
X71.69Y-125.0
X79.31Y-125.0
T3
X63.738Y-120.615
X66.278Y-120.615
X68.819Y-120.615
X71.358Y-120.615
X73.898Y-120.615
X76.438Y-120.615
T4
X61.198Y-105.375
X61.198Y-120.615
X63.738Y-105.375
X66.278Y-105.375
X68.819Y-105.375
X71.358Y-105.375
X73.898Y-105.375
X76.438Y-105.375
X77.5Y-92.13
X77.5Y-94.63
X77.5Y-97.13
X81.2Y-104.975
X81.42Y-109.0
X83.74Y-104.975
X83.96Y-109.0
X86.28Y-104.975
X86.5Y-109.0
X88.82Y-104.975
X89.04Y-109.0
X91.58Y-109.0
X92.0Y-92.13
X92.0Y-97.13
X110.5Y-112.0
X110.5Y-117.0
T5
X97.46Y-109.73
X100.0Y-109.73
X102.54Y-109.73
T6
X74.35Y-112.237
X74.35Y-114.777
T7
G00X84.35Y-89.03
M15
G01X85.65Y-89.03
M16
G05
G00X84.35Y-100.23
M15
G01X85.65Y-100.23
M16
G05
M30
