%TF.GenerationSoftware,KiCad,Pcbnew,9.0.6*%
%TF.CreationDate,2025-11-13T11:26:12-05:00*%
%TF.ProjectId,ESPAtomizer,45535041-746f-46d6-997a-65722e6b6963,rev?*%
%TF.SameCoordinates,Original*%
%TF.FileFunction,Copper,L1,Top*%
%TF.FilePolarity,Positive*%
%FSLAX46Y46*%
G04 Gerber Fmt 4.6, Leading zero omitted, Abs format (unit mm)*
G04 Created by KiCad (PCBNEW 9.0.6) date 2025-11-13 11:26:12*
%MOMM*%
%LPD*%
G01*
G04 APERTURE LIST*
G04 Aperture macros list*
%AMRoundRect*
0 Rectangle with rounded corners*
0 $1 Rounding radius*
0 $2 $3 $4 $5 $6 $7 $8 $9 X,Y pos of 4 corners*
0 Add a 4 corners polygon primitive as box body*
4,1,4,$2,$3,$4,$5,$6,$7,$8,$9,$2,$3,0*
0 Add four circle primitives for the rounded corners*
1,1,$1+$1,$2,$3*
1,1,$1+$1,$4,$5*
1,1,$1+$1,$6,$7*
1,1,$1+$1,$8,$9*
0 Add four rect primitives between the rounded corners*
20,1,$1+$1,$2,$3,$4,$5,0*
20,1,$1+$1,$4,$5,$6,$7,0*
20,1,$1+$1,$6,$7,$8,$9,0*
20,1,$1+$1,$8,$9,$2,$3,0*%
G04 Aperture macros list end*
%TA.AperFunction,ComponentPad*%
%ADD10O,1.905000X2.000000*%
%TD*%
%TA.AperFunction,ComponentPad*%
%ADD11R,1.905000X2.000000*%
%TD*%
%TA.AperFunction,ComponentPad*%
%ADD12C,1.600000*%
%TD*%
%TA.AperFunction,ComponentPad*%
%ADD13C,1.800000*%
%TD*%
%TA.AperFunction,ComponentPad*%
%ADD14O,1.750000X1.200000*%
%TD*%
%TA.AperFunction,ComponentPad*%
%ADD15RoundRect,0.250000X0.625000X-0.350000X0.625000X0.350000X-0.625000X0.350000X-0.625000X-0.350000X0*%
%TD*%
%TA.AperFunction,ComponentPad*%
%ADD16R,2.000000X2.000000*%
%TD*%
%TA.AperFunction,ComponentPad*%
%ADD17C,2.000000*%
%TD*%
%TA.AperFunction,ComponentPad*%
%ADD18R,3.200000X2.000000*%
%TD*%
%TA.AperFunction,ComponentPad*%
%ADD19R,1.700000X1.700000*%
%TD*%
%TA.AperFunction,ComponentPad*%
%ADD20C,1.700000*%
%TD*%
%TA.AperFunction,ComponentPad*%
%ADD21C,2.200000*%
%TD*%
%TA.AperFunction,ComponentPad*%
%ADD22O,1.700000X1.700000*%
%TD*%
%TA.AperFunction,ComponentPad*%
%ADD23C,1.524000*%
%TD*%
%TA.AperFunction,Conductor*%
%ADD24C,0.200000*%
%TD*%
%TA.AperFunction,Conductor*%
%ADD25C,2.000000*%
%TD*%
G04 APERTURE END LIST*
D10*
%TO.P,Q2,3,S*%
%TO.N,/D*%
X102540000Y-109730000D03*
%TO.P,Q2,2,D*%
%TO.N,GND*%
X100000000Y-109730000D03*
D11*
%TO.P,Q2,1,G*%
%TO.N,/G*%
X97460000Y-109730000D03*
%TD*%
D12*
%TO.P,C2,2*%
%TO.N,/BAT_ADC*%
X69690000Y-97700000D03*
%TO.P,C2,1*%
%TO.N,GND*%
X62190000Y-97700000D03*
%TD*%
%TO.P,R5,2*%
%TO.N,/G*%
X68810000Y-125000000D03*
%TO.P,R5,1*%
%TO.N,/MOSFET_GATE*%
X61190000Y-125000000D03*
%TD*%
%TO.P,R4,2*%
%TO.N,GND*%
X79310000Y-125000000D03*
%TO.P,R4,1*%
%TO.N,/G*%
X71690000Y-125000000D03*
%TD*%
%TO.P,R3,2*%
%TO.N,/BAT+*%
X69810000Y-94050000D03*
%TO.P,R3,1*%
%TO.N,/BAT_ADC*%
X62190000Y-94050000D03*
%TD*%
%TO.P,R2,2*%
%TO.N,/BAT_ADC*%
X69810000Y-90000000D03*
%TO.P,R2,1*%
%TO.N,GND*%
X62190000Y-90000000D03*
%TD*%
D13*
%TO.P,SW2,2,B*%
%TO.N,Net-(J3-Pin_2)*%
X110500000Y-117000000D03*
%TO.P,SW2,1,A*%
%TO.N,/BAT+*%
X110500000Y-112000000D03*
%TD*%
D14*
%TO.P,J5,2,Pin_2*%
%TO.N,/D*%
X108450000Y-103500000D03*
D15*
%TO.P,J5,1,Pin_1*%
%TO.N,/BAT+*%
X108450000Y-105500000D03*
%TD*%
D14*
%TO.P,J3,2,Pin_2*%
%TO.N,Net-(J3-Pin_2)*%
X108500000Y-123500000D03*
D15*
%TO.P,J3,1,Pin_1*%
%TO.N,GND*%
X108500000Y-125500000D03*
%TD*%
D16*
%TO.P,SW3,A,A*%
%TO.N,/ENC_A*%
X77500000Y-92130000D03*
D17*
%TO.P,SW3,C,C*%
%TO.N,/ENC_B*%
X77500000Y-94630000D03*
%TO.P,SW3,B,B*%
%TO.N,GND*%
X77500000Y-97130000D03*
%TO.P,SW3,S2,S2*%
X92000000Y-92130000D03*
%TO.P,SW3,S1,S1*%
%TO.N,/ENC_SW*%
X92000000Y-97130000D03*
D18*
%TO.P,SW3,MP*%
%TO.N,N/C*%
X85000000Y-89030000D03*
X85000000Y-100230000D03*
%TD*%
D19*
%TO.P,J4,1,Pin_1*%
%TO.N,GND*%
X81420000Y-109000000D03*
D20*
%TO.P,J4,2,Pin_2*%
%TO.N,/VCC*%
X83960000Y-109000000D03*
%TO.P,J4,3,Pin_3*%
%TO.N,/MAX_SCK*%
X86500000Y-109000000D03*
%TO.P,J4,4,Pin_4*%
%TO.N,/MAX_CS*%
X89040000Y-109000000D03*
%TO.P,J4,5,Pin_5*%
%TO.N,/MAX_SO*%
X91580000Y-109000000D03*
%TD*%
D19*
%TO.P,J2,1,Pin_1*%
%TO.N,GND*%
X81200000Y-104975000D03*
D20*
%TO.P,J2,2,Pin_2*%
%TO.N,/VCC*%
X83740000Y-104975000D03*
%TO.P,J2,3,Pin_3*%
%TO.N,/SCL*%
X86280000Y-104975000D03*
%TO.P,J2,4,Pin_4*%
%TO.N,/SDA*%
X88820000Y-104975000D03*
%TD*%
D21*
%TO.P,U2,33,GND*%
%TO.N,GND*%
X74350199Y-112236901D03*
%TO.P,U2,32,BAT*%
%TO.N,/BAT+*%
X74350199Y-114776901D03*
D19*
%TO.P,U2,14,VBUS*%
%TO.N,unconnected-(U2-VBUS-Pad14)*%
X61198500Y-105375500D03*
D22*
%TO.P,U2,13,GND*%
%TO.N,GND*%
X63738500Y-105375500D03*
%TO.P,U2,12,3V3*%
%TO.N,/VCC*%
X66278500Y-105375500D03*
%TO.P,U2,11,GPIO18_D10_MOSI*%
%TO.N,/MAX_SCK*%
X68818500Y-105375500D03*
%TO.P,U2,10,GPIO20_D9_MISO*%
%TO.N,/MAX_CS*%
X71358500Y-105375500D03*
%TO.P,U2,9,GPIO19_D8_SCK*%
%TO.N,/MAX_SO*%
X73898500Y-105375500D03*
%TO.P,U2,8,GPIO17_D7_RX*%
%TO.N,unconnected-(U2-GPIO17_D7_RX-Pad8)*%
X76438500Y-105375500D03*
D23*
%TO.P,U2,7,GPIO16_D6_TX*%
%TO.N,/ENC_A*%
X76438500Y-120615500D03*
%TO.P,U2,6,GPIO23_D5_SCL*%
%TO.N,/ENC_B*%
X73898500Y-120615500D03*
%TO.P,U2,5,GPIO22_D4_SDA*%
%TO.N,/ENC_SW*%
X71358500Y-120615500D03*
%TO.P,U2,4,GPIO21_D3*%
%TO.N,/BAT_ADC*%
X68818500Y-120615500D03*
%TO.P,U2,3,GPIO2_A2_D2*%
%TO.N,/SDA*%
X66278500Y-120615500D03*
%TO.P,U2,2,GPIO1_A1_D1*%
%TO.N,/SCL*%
X63738500Y-120615500D03*
D19*
%TO.P,U2,1,GPIO0_A0_D0*%
%TO.N,/MOSFET_GATE*%
X61198500Y-120615500D03*
%TD*%
D24*
%TO.N,/ENC_B*%
X70969000Y-88099000D02*
X61968265Y-88099000D01*
X77500000Y-94630000D02*
X70969000Y-88099000D01*
%TO.N,/ENC_A*%
X77500000Y-88959486D02*
X76141514Y-87601000D01*
X77500000Y-92130000D02*
X77500000Y-88959486D01*
X61900579Y-87601000D02*
X76141514Y-87601000D01*
X59647500Y-89854079D02*
X61900579Y-87601000D01*
X59647500Y-122119600D02*
X59647500Y-89854079D01*
X60007400Y-122479500D02*
X59647500Y-122119600D01*
X74574500Y-122479500D02*
X60007400Y-122479500D01*
X76438500Y-120615500D02*
X74574500Y-122479500D01*
%TO.N,/BAT_ADC*%
X68310000Y-88500000D02*
X69810000Y-90000000D01*
X62132951Y-88500000D02*
X68310000Y-88500000D01*
X61089000Y-89543951D02*
X62132951Y-88500000D01*
X61089000Y-92949000D02*
X61089000Y-89543951D01*
%TO.N,/ENC_B*%
X72435500Y-122078500D02*
X73898500Y-120615500D01*
X60047500Y-90019765D02*
X60047500Y-121952500D01*
X61968265Y-88099000D02*
X60047500Y-90019765D01*
%TO.N,/BAT_ADC*%
X62190000Y-94050000D02*
X61089000Y-92949000D01*
%TO.N,/ENC_B*%
X60173500Y-122078500D02*
X72435500Y-122078500D01*
X60047500Y-121952500D02*
X60173500Y-122078500D01*
%TO.N,/BAT_ADC*%
X62587500Y-104802500D02*
X69690000Y-97700000D01*
X62587500Y-120967810D02*
X62587500Y-104802500D01*
X63298190Y-121678500D02*
X62587500Y-120967810D01*
X64178810Y-121678500D02*
X63298190Y-121678500D01*
X65215500Y-120641810D02*
X64178810Y-121678500D01*
X65215500Y-120175190D02*
X65215500Y-120641810D01*
X65837190Y-119553500D02*
X65215500Y-120175190D01*
X67756500Y-119553500D02*
X65837190Y-119553500D01*
X68818500Y-120615500D02*
X67756500Y-119553500D01*
%TO.N,/ENC_SW*%
X93000000Y-98130000D02*
X92000000Y-97130000D01*
X93000000Y-109207760D02*
X93000000Y-98130000D01*
X87207760Y-115000000D02*
X93000000Y-109207760D01*
X72395190Y-120615500D02*
X78010690Y-115000000D01*
X71358500Y-120615500D02*
X72395190Y-120615500D01*
X78010690Y-115000000D02*
X87207760Y-115000000D01*
%TO.N,/SCL*%
X85111000Y-109476760D02*
X85111000Y-106144000D01*
X80388760Y-114199000D02*
X85111000Y-109476760D01*
X71964495Y-119152500D02*
X76917995Y-114199000D01*
X76917995Y-114199000D02*
X80388760Y-114199000D01*
X65201500Y-119152500D02*
X71964495Y-119152500D01*
X63738500Y-120615500D02*
X65201500Y-119152500D01*
X85111000Y-106144000D02*
X86280000Y-104975000D01*
%TO.N,/SDA*%
X67341500Y-121678500D02*
X66278500Y-120615500D01*
X69672810Y-121678500D02*
X67341500Y-121678500D01*
X70295500Y-121055810D02*
X69672810Y-121678500D01*
X70918190Y-119552500D02*
X70295500Y-120175190D01*
X77844590Y-114599000D02*
X72891090Y-119552500D01*
X82528760Y-114599000D02*
X77844590Y-114599000D01*
X72891090Y-119552500D02*
X70918190Y-119552500D01*
X87889000Y-109238760D02*
X82528760Y-114599000D01*
X87889000Y-105906000D02*
X87889000Y-109238760D01*
X88820000Y-104975000D02*
X87889000Y-105906000D01*
X70295500Y-120175190D02*
X70295500Y-121055810D01*
%TO.N,/VCC*%
X80866000Y-107849000D02*
X68752000Y-107849000D01*
X68752000Y-107849000D02*
X66278500Y-105375500D01*
D25*
%TO.N,Net-(J3-Pin_2)*%
X108500000Y-119000000D02*
X110500000Y-117000000D01*
X108500000Y-123500000D02*
X108500000Y-119000000D01*
D24*
%TO.N,/G*%
X93335686Y-109730000D02*
X87665686Y-115400000D01*
X97960000Y-109730000D02*
X93335686Y-109730000D01*
%TO.N,/VCC*%
X83740000Y-104975000D02*
X80866000Y-107849000D01*
%TO.N,/BAT_ADC*%
X71702950Y-95687050D02*
X69690000Y-97700000D01*
X71702950Y-91892950D02*
X71702950Y-95687050D01*
X69810000Y-90000000D02*
X71702950Y-91892950D01*
%TO.N,GND*%
X63291000Y-96599000D02*
X62190000Y-97700000D01*
X63291000Y-91101000D02*
X63291000Y-96599000D01*
X62190000Y-90000000D02*
X63291000Y-91101000D01*
%TO.N,/G*%
X87100000Y-115400000D02*
X87665686Y-115400000D01*
X77500000Y-125000000D02*
X87100000Y-115400000D01*
X71690000Y-125000000D02*
X77500000Y-125000000D01*
%TO.N,/MAX_SO*%
X72747500Y-106526500D02*
X73898500Y-105375500D01*
X70207500Y-105852260D02*
X70881740Y-106526500D01*
X70207500Y-104898740D02*
X70207500Y-105852260D01*
X72885240Y-102221000D02*
X70207500Y-104898740D01*
X89393645Y-102221000D02*
X72885240Y-102221000D01*
X91580000Y-109000000D02*
X91580000Y-104407355D01*
X91580000Y-104407355D02*
X89393645Y-102221000D01*
%TO.N,/MAX_SCK*%
X76945501Y-106927500D02*
X70370500Y-106927500D01*
X80049001Y-103824000D02*
X76945501Y-106927500D01*
X86756760Y-103824000D02*
X80049001Y-103824000D01*
%TO.N,/MAX_SO*%
X70881740Y-106526500D02*
X72747500Y-106526500D01*
%TO.N,/MAX_SCK*%
X87431000Y-104498240D02*
X86756760Y-103824000D01*
X87431000Y-108069000D02*
X87431000Y-104498240D01*
X86500000Y-109000000D02*
X87431000Y-108069000D01*
%TO.N,/MAX_CS*%
X73310000Y-103424000D02*
X71358500Y-105375500D01*
X88896760Y-103424000D02*
X73310000Y-103424000D01*
X89971000Y-108069000D02*
X89971000Y-104498241D01*
X89040000Y-109000000D02*
X89971000Y-108069000D01*
X89971000Y-104498241D02*
X88896760Y-103424000D01*
%TO.N,/MAX_SCK*%
X70370500Y-106927500D02*
X68818500Y-105375500D01*
%TO.N,/VCC*%
X83740000Y-104975000D02*
X83740000Y-108780000D01*
X83740000Y-108780000D02*
X83960000Y-109000000D01*
%TD*%
M02*
