%TF.GenerationSoftware,KiCad,Pcbnew,9.0.6*%
%TF.CreationDate,2025-11-12T21:58:17-05:00*%
%TF.ProjectId,ESPAtomizer,45535041-746f-46d6-997a-65722e6b6963,rev?*%
%TF.SameCoordinates,Original*%
%TF.FileFunction,Copper,L1,Top*%
%TF.FilePolarity,Positive*%
%FSLAX46Y46*%
G04 Gerber Fmt 4.6, Leading zero omitted, Abs format (unit mm)*
G04 Created by KiCad (PCBNEW 9.0.6) date 2025-11-12 21:58:17*
%MOMM*%
%LPD*%
G01*
G04 APERTURE LIST*
G04 Aperture macros list*
%AMRoundRect*
0 Rectangle with rounded corners*
0 $1 Rounding radius*
0 $2 $3 $4 $5 $6 $7 $8 $9 X,Y pos of 4 corners*
0 Add a 4 corners polygon primitive as box body*
4,1,4,$2,$3,$4,$5,$6,$7,$8,$9,$2,$3,0*
0 Add four circle primitives for the rounded corners*
1,1,$1+$1,$2,$3*
1,1,$1+$1,$4,$5*
1,1,$1+$1,$6,$7*
1,1,$1+$1,$8,$9*
0 Add four rect primitives between the rounded corners*
20,1,$1+$1,$2,$3,$4,$5,0*
20,1,$1+$1,$4,$5,$6,$7,0*
20,1,$1+$1,$6,$7,$8,$9,0*
20,1,$1+$1,$8,$9,$2,$3,0*%
G04 Aperture macros list end*
%TA.AperFunction,ComponentPad*%
%ADD10O,1.200000X1.750000*%
%TD*%
%TA.AperFunction,ComponentPad*%
%ADD11RoundRect,0.250000X-0.350000X-0.625000X0.350000X-0.625000X0.350000X0.625000X-0.350000X0.625000X0*%
%TD*%
%TA.AperFunction,ComponentPad*%
%ADD12C,1.700000*%
%TD*%
%TA.AperFunction,ComponentPad*%
%ADD13R,1.700000X1.700000*%
%TD*%
%TA.AperFunction,ComponentPad*%
%ADD14C,1.524000*%
%TD*%
%TA.AperFunction,ComponentPad*%
%ADD15O,1.700000X1.700000*%
%TD*%
%TA.AperFunction,ComponentPad*%
%ADD16C,2.200000*%
%TD*%
%TA.AperFunction,ComponentPad*%
%ADD17R,2.000000X2.000000*%
%TD*%
%TA.AperFunction,ComponentPad*%
%ADD18C,2.000000*%
%TD*%
%TA.AperFunction,ComponentPad*%
%ADD19R,3.200000X2.000000*%
%TD*%
%TA.AperFunction,ComponentPad*%
%ADD20C,1.800000*%
%TD*%
%TA.AperFunction,ComponentPad*%
%ADD21C,1.600000*%
%TD*%
%TA.AperFunction,ComponentPad*%
%ADD22R,1.905000X2.000000*%
%TD*%
%TA.AperFunction,ComponentPad*%
%ADD23O,1.905000X2.000000*%
%TD*%
%TA.AperFunction,ViaPad*%
%ADD24C,0.600000*%
%TD*%
%TA.AperFunction,Conductor*%
%ADD25C,0.200000*%
%TD*%
%TA.AperFunction,Conductor*%
%ADD26C,2.500000*%
%TD*%
G04 APERTURE END LIST*
D10*
%TO.P,J5,2,Pin_2*%
%TO.N,/D*%
X116000000Y-90450000D03*
D11*
%TO.P,J5,1,Pin_1*%
%TO.N,/BAT+*%
X114000000Y-90450000D03*
%TD*%
D12*
%TO.P,J4,5,Pin_5*%
%TO.N,/MAX_SO*%
X112120000Y-100000000D03*
%TO.P,J4,4,Pin_4*%
%TO.N,/MAX_CS*%
X109580000Y-100000000D03*
%TO.P,J4,3,Pin_3*%
%TO.N,/MAX_SCK*%
X107040000Y-100000000D03*
%TO.P,J4,2,Pin_2*%
%TO.N,/VCC*%
X104500000Y-100000000D03*
D13*
%TO.P,J4,1,Pin_1*%
%TO.N,GND*%
X101960000Y-100000000D03*
%TD*%
D12*
%TO.P,J2,4,Pin_4*%
%TO.N,/SDA*%
X93830000Y-100000000D03*
%TO.P,J2,3,Pin_3*%
%TO.N,/SCL*%
X91290000Y-100000000D03*
%TO.P,J2,2,Pin_2*%
%TO.N,/VCC*%
X88750000Y-100000000D03*
D13*
%TO.P,J2,1,Pin_1*%
%TO.N,GND*%
X86210000Y-100000000D03*
%TD*%
%TO.P,U2,1,GPIO0_A0_D0*%
%TO.N,/MOSFET_GATE*%
X83069000Y-63879500D03*
D14*
%TO.P,U2,2,GPIO1_A1_D1*%
%TO.N,/SCL*%
X83069000Y-66419500D03*
%TO.P,U2,3,GPIO2_A2_D2*%
%TO.N,/SDA*%
X83069000Y-68959500D03*
%TO.P,U2,4,GPIO21_D3*%
%TO.N,/BAT_ADC*%
X83069000Y-71499500D03*
%TO.P,U2,5,GPIO22_D4_SDA*%
%TO.N,/ENC_SW*%
X83069000Y-74039500D03*
%TO.P,U2,6,GPIO23_D5_SCL*%
%TO.N,/ENC_B*%
X83069000Y-76579500D03*
%TO.P,U2,7,GPIO16_D6_TX*%
%TO.N,/ENC_A*%
X83069000Y-79119500D03*
D15*
%TO.P,U2,8,GPIO17_D7_RX*%
%TO.N,unconnected-(U2-GPIO17_D7_RX-Pad8)*%
X98309000Y-79119500D03*
%TO.P,U2,9,GPIO19_D8_SCK*%
%TO.N,/MAX_SO*%
X98309000Y-76579500D03*
%TO.P,U2,10,GPIO20_D9_MISO*%
%TO.N,/MAX_CS*%
X98309000Y-74039500D03*
%TO.P,U2,11,GPIO18_D10_MOSI*%
%TO.N,/MAX_SCK*%
X98309000Y-71499500D03*
%TO.P,U2,12,3V3*%
%TO.N,/VCC*%
X98309000Y-68959500D03*
%TO.P,U2,13,GND*%
%TO.N,GND*%
X98309000Y-66419500D03*
D13*
%TO.P,U2,14,VBUS*%
%TO.N,unconnected-(U2-VBUS-Pad14)*%
X98309000Y-63879500D03*
D16*
%TO.P,U2,32,BAT*%
%TO.N,/BAT+*%
X88907599Y-77031199D03*
%TO.P,U2,33,GND*%
%TO.N,GND*%
X91447599Y-77031199D03*
%TD*%
D17*
%TO.P,SW3,A,A*%
%TO.N,/ENC_A*%
X82760000Y-87600000D03*
D18*
%TO.P,SW3,C,C*%
%TO.N,/ENC_B*%
X82760000Y-90100000D03*
%TO.P,SW3,B,B*%
%TO.N,GND*%
X82760000Y-92600000D03*
%TO.P,SW3,S2,S2*%
X97260000Y-87600000D03*
%TO.P,SW3,S1,S1*%
%TO.N,/ENC_SW*%
X97260000Y-92600000D03*
D19*
%TO.P,SW3,MP*%
%TO.N,N/C*%
X90260000Y-84500000D03*
X90260000Y-95700000D03*
%TD*%
D20*
%TO.P,SW2,1,A*%
%TO.N,/BAT+*%
X104500000Y-63000000D03*
%TO.P,SW2,2,B*%
%TO.N,Net-(J3-Pin_2)*%
X109500000Y-63000000D03*
%TD*%
D21*
%TO.P,R5,1*%
%TO.N,/MOSFET_GATE*%
X113380000Y-79600000D03*
%TO.P,R5,2*%
%TO.N,/G*%
X121000000Y-79600000D03*
%TD*%
%TO.P,R4,1*%
%TO.N,/G*%
X113380000Y-75550000D03*
%TO.P,R4,2*%
%TO.N,GND*%
X121000000Y-75550000D03*
%TD*%
%TO.P,R3,1*%
%TO.N,/BAT_ADC*%
X113380000Y-71500000D03*
%TO.P,R3,2*%
%TO.N,/BAT+*%
X121000000Y-71500000D03*
%TD*%
%TO.P,R2,1*%
%TO.N,GND*%
X113380000Y-67450000D03*
%TO.P,R2,2*%
%TO.N,/BAT_ADC*%
X121000000Y-67450000D03*
%TD*%
D22*
%TO.P,Q2,1,G*%
%TO.N,/G*%
X103490000Y-85660000D03*
D23*
%TO.P,Q2,2,D*%
%TO.N,GND*%
X106030000Y-85660000D03*
%TO.P,Q2,3,S*%
%TO.N,/D*%
X108570000Y-85660000D03*
%TD*%
D11*
%TO.P,J3,1,Pin_1*%
%TO.N,GND*%
X103500000Y-90500000D03*
D10*
%TO.P,J3,2,Pin_2*%
%TO.N,Net-(J3-Pin_2)*%
X105500000Y-90500000D03*
%TD*%
D21*
%TO.P,C2,1*%
%TO.N,GND*%
X113380000Y-83700000D03*
%TO.P,C2,2*%
%TO.N,/BAT_ADC*%
X120880000Y-83700000D03*
%TD*%
D24*
%TO.N,/MAX_CS*%
X101500000Y-97000000D03*
%TO.N,/MAX_SO*%
X103000000Y-97000000D03*
%TD*%
D25*
%TO.N,/MAX_CS*%
X101500000Y-95000108D02*
X101500000Y-97000000D01*
X98561000Y-92061108D02*
X101500000Y-95000108D01*
%TO.N,GND*%
X97260000Y-89014213D02*
X97260000Y-87600000D01*
X103400000Y-96334315D02*
X103400000Y-95154213D01*
X103900000Y-97165685D02*
X103900000Y-96834315D01*
%TO.N,/MAX_CS*%
X98499945Y-92000055D02*
X98561000Y-92061108D01*
%TO.N,GND*%
X103415685Y-97650000D02*
X103900000Y-97165685D01*
X103900000Y-96834315D02*
X103400000Y-96334315D01*
X102480761Y-97400000D02*
X102730761Y-97650000D01*
X103400000Y-95154213D02*
X97260000Y-89014213D01*
X102019239Y-97400000D02*
X102480761Y-97400000D01*
X101769239Y-97650000D02*
X102019239Y-97400000D01*
X101415685Y-97650000D02*
X101769239Y-97650000D01*
X99000000Y-102960000D02*
X99000000Y-100065685D01*
X98480000Y-103480000D02*
X99000000Y-102960000D01*
X102730761Y-97650000D02*
X103415685Y-97650000D01*
%TO.N,/MAX_CS*%
X98499945Y-92000055D02*
X98599000Y-92099109D01*
%TO.N,GND*%
X99000000Y-100065685D02*
X101415685Y-97650000D01*
%TO.N,/VCC*%
X105350000Y-98218629D02*
X105350000Y-99150000D01*
X104500000Y-95368630D02*
X104500000Y-97368628D01*
X99500000Y-90368629D02*
X104500000Y-95368630D01*
X99500000Y-70150500D02*
X99500000Y-90368629D01*
X104500000Y-97368628D02*
X105350000Y-98218629D01*
X98309000Y-68959500D02*
X99500000Y-70150500D01*
%TO.N,/MAX_SO*%
X95500000Y-88000000D02*
X103000000Y-95500000D01*
%TO.N,/MAX_SCK*%
X107040000Y-97342945D02*
X107040000Y-100000000D01*
X99901000Y-90203944D02*
X107040000Y-97342945D01*
X98785760Y-67808500D02*
X99901000Y-68923740D01*
%TO.N,/VCC*%
X105350000Y-99150000D02*
X104500000Y-100000000D01*
%TO.N,/MAX_SCK*%
X97832240Y-67808500D02*
X98785760Y-67808500D01*
X97158000Y-68482740D02*
X97832240Y-67808500D01*
X97158000Y-70348500D02*
X97158000Y-68482740D01*
X98309000Y-71499500D02*
X97158000Y-70348500D01*
%TO.N,/MAX_SO*%
X103000000Y-95500000D02*
X103000000Y-97000000D01*
%TO.N,/MAX_SCK*%
X99901000Y-68923740D02*
X99901000Y-90203944D01*
%TO.N,/MAX_CS*%
X98309000Y-74039500D02*
X95100000Y-77248500D01*
X95100000Y-88600109D02*
X98499945Y-92000055D01*
%TO.N,/MAX_SO*%
X95500000Y-79388500D02*
X95500000Y-88000000D01*
%TO.N,/MAX_CS*%
X95100000Y-77248500D02*
X95100000Y-88600109D01*
%TO.N,/MAX_SO*%
X98309000Y-76579500D02*
X95500000Y-79388500D01*
D26*
%TO.N,GND*%
X111916209Y-92826000D02*
X105893500Y-86803290D01*
X118752000Y-90873552D02*
X116799552Y-92826000D01*
X118752000Y-87994706D02*
X118752000Y-90873552D01*
X114457295Y-83700000D02*
X118752000Y-87994706D01*
X113380000Y-83700000D02*
X114457295Y-83700000D01*
X116799552Y-92826000D02*
X111916209Y-92826000D01*
D25*
X98480000Y-103480000D02*
X101960000Y-100000000D01*
X98460000Y-103500000D02*
X98480000Y-103480000D01*
D26*
%TO.N,/D*%
X115061504Y-88124000D02*
X116051000Y-89113496D01*
X111034000Y-88124000D02*
X115061504Y-88124000D01*
X108570000Y-85660000D02*
X111034000Y-88124000D01*
D25*
%TO.N,/G*%
X108449000Y-80701000D02*
X103490000Y-85660000D01*
X113836050Y-80701000D02*
X108449000Y-80701000D01*
X114481000Y-79143950D02*
X114481000Y-80056050D01*
X114481000Y-80056050D02*
X113836050Y-80701000D01*
X113380000Y-78042950D02*
X114481000Y-79143950D01*
X113380000Y-75550000D02*
X113380000Y-78042950D01*
X113380000Y-77757050D02*
X113380000Y-75550000D01*
X121336050Y-84801000D02*
X120423950Y-84801000D01*
X121000000Y-79600000D02*
X121981000Y-80581000D01*
X121981000Y-80581000D02*
X121981000Y-84156050D01*
X121981000Y-84156050D02*
X121336050Y-84801000D01*
X120423950Y-84801000D02*
X113380000Y-77757050D01*
%TO.N,/BAT_ADC*%
X116950000Y-71500000D02*
X121000000Y-67450000D01*
X113380000Y-71500000D02*
X116950000Y-71500000D01*
X114481000Y-77301000D02*
X120880000Y-83700000D01*
X114481000Y-72601000D02*
X114481000Y-77301000D01*
X113380000Y-71500000D02*
X114481000Y-72601000D01*
%TO.N,GND*%
X89710000Y-103500000D02*
X98460000Y-103500000D01*
X86210000Y-100000000D02*
X89710000Y-103500000D01*
X86210000Y-96050000D02*
X86210000Y-100000000D01*
X82760000Y-92600000D02*
X86210000Y-96050000D01*
%TO.N,/ENC_A*%
X83069000Y-87291000D02*
X82760000Y-87600000D01*
X83069000Y-79119500D02*
X83069000Y-87291000D01*
%TO.N,/ENC_B*%
X81459000Y-88799000D02*
X82760000Y-90100000D01*
X81459000Y-78189500D02*
X81459000Y-88799000D01*
X83069000Y-76579500D02*
X81459000Y-78189500D01*
%TO.N,/ENC_SW*%
X93905760Y-101552000D02*
X97260000Y-98197760D01*
X88674240Y-101552000D02*
X93905760Y-101552000D01*
X87599000Y-97550340D02*
X87599000Y-100476760D01*
X97260000Y-98197760D02*
X97260000Y-92600000D01*
X86704599Y-96655939D02*
X87599000Y-97550340D01*
X86704599Y-77675099D02*
X86704599Y-96655939D01*
X87599000Y-100476760D02*
X88674240Y-101552000D01*
X83069000Y-74039500D02*
X86704599Y-77675099D01*
%TO.N,/BAT_ADC*%
X105159737Y-66899000D02*
X108779000Y-66899000D01*
X81918000Y-62728500D02*
X100989237Y-62728500D01*
X81918000Y-70348500D02*
X81918000Y-62728500D01*
X100989237Y-62728500D02*
X105159737Y-66899000D01*
X83069000Y-71499500D02*
X81918000Y-70348500D01*
X108779000Y-66899000D02*
X113380000Y-71500000D01*
%TO.N,/SDA*%
X90813240Y-101151000D02*
X92679000Y-101151000D01*
X90139000Y-99523240D02*
X90139000Y-100476760D01*
X87105599Y-96489839D02*
X90139000Y-99523240D01*
X87105599Y-72996099D02*
X87105599Y-96489839D01*
X90139000Y-100476760D02*
X90813240Y-101151000D01*
X92679000Y-101151000D02*
X93830000Y-100000000D01*
X83069000Y-68959500D02*
X87105599Y-72996099D01*
%TO.N,/SCL*%
X87506599Y-96216599D02*
X91290000Y-100000000D01*
X83069000Y-66419500D02*
X87506599Y-70857099D01*
X87506599Y-70857099D02*
X87506599Y-96216599D01*
%TO.N,/MOSFET_GATE*%
X84220000Y-65030500D02*
X98810500Y-65030500D01*
X83069000Y-63879500D02*
X84220000Y-65030500D01*
X98810500Y-65030500D02*
X113380000Y-79600000D01*
%TO.N,GND*%
X91447599Y-73280901D02*
X91447599Y-77031199D01*
X98309000Y-66419500D02*
X91447599Y-73280901D01*
%TD*%
M02*
