%TF.GenerationSoftware,KiCad,Pcbnew,9.0.6*%
%TF.CreationDate,2025-11-12T21:58:17-05:00*%
%TF.ProjectId,ESPAtomizer,45535041-746f-46d6-997a-65722e6b6963,rev?*%
%TF.SameCoordinates,Original*%
%TF.FileFunction,Soldermask,Bot*%
%TF.FilePolarity,Negative*%
%FSLAX46Y46*%
G04 Gerber Fmt 4.6, Leading zero omitted, Abs format (unit mm)*
G04 Created by KiCad (PCBNEW 9.0.6) date 2025-11-12 21:58:17*
%MOMM*%
%LPD*%
G01*
G04 APERTURE LIST*
G04 Aperture macros list*
%AMRoundRect*
0 Rectangle with rounded corners*
0 $1 Rounding radius*
0 $2 $3 $4 $5 $6 $7 $8 $9 X,Y pos of 4 corners*
0 Add a 4 corners polygon primitive as box body*
4,1,4,$2,$3,$4,$5,$6,$7,$8,$9,$2,$3,0*
0 Add four circle primitives for the rounded corners*
1,1,$1+$1,$2,$3*
1,1,$1+$1,$4,$5*
1,1,$1+$1,$6,$7*
1,1,$1+$1,$8,$9*
0 Add four rect primitives between the rounded corners*
20,1,$1+$1,$2,$3,$4,$5,0*
20,1,$1+$1,$4,$5,$6,$7,0*
20,1,$1+$1,$6,$7,$8,$9,0*
20,1,$1+$1,$8,$9,$2,$3,0*%
G04 Aperture macros list end*
%ADD10O,1.200000X1.750000*%
%ADD11RoundRect,0.250000X-0.350000X-0.625000X0.350000X-0.625000X0.350000X0.625000X-0.350000X0.625000X0*%
%ADD12C,1.700000*%
%ADD13R,1.700000X1.700000*%
%ADD14C,1.524000*%
%ADD15O,1.700000X1.700000*%
%ADD16C,2.200000*%
%ADD17R,2.000000X2.000000*%
%ADD18C,2.000000*%
%ADD19R,3.200000X2.000000*%
%ADD20C,1.800000*%
%ADD21C,1.600000*%
%ADD22C,3.500000*%
%ADD23R,1.905000X2.000000*%
%ADD24O,1.905000X2.000000*%
G04 APERTURE END LIST*
D10*
%TO.C,J5*%
X116000000Y-90450000D03*
D11*
X114000000Y-90450000D03*
%TD*%
D12*
%TO.C,J4*%
X112120000Y-100000000D03*
X109580000Y-100000000D03*
X107040000Y-100000000D03*
X104500000Y-100000000D03*
D13*
X101960000Y-100000000D03*
%TD*%
D12*
%TO.C,J2*%
X93830000Y-100000000D03*
X91290000Y-100000000D03*
X88750000Y-100000000D03*
D13*
X86210000Y-100000000D03*
%TD*%
%TO.C,U2*%
X83069000Y-63879500D03*
D14*
X83069000Y-66419500D03*
X83069000Y-68959500D03*
X83069000Y-71499500D03*
X83069000Y-74039500D03*
X83069000Y-76579500D03*
X83069000Y-79119500D03*
D15*
X98309000Y-79119500D03*
X98309000Y-76579500D03*
X98309000Y-74039500D03*
X98309000Y-71499500D03*
X98309000Y-68959500D03*
X98309000Y-66419500D03*
D13*
X98309000Y-63879500D03*
D16*
X88907599Y-77031199D03*
X91447599Y-77031199D03*
%TD*%
D17*
%TO.C,SW3*%
X82760000Y-87600000D03*
D18*
X82760000Y-90100000D03*
X82760000Y-92600000D03*
X97260000Y-87600000D03*
X97260000Y-92600000D03*
D19*
X90260000Y-84500000D03*
X90260000Y-95700000D03*
%TD*%
D20*
%TO.C,SW2*%
X104500000Y-63000000D03*
X109500000Y-63000000D03*
%TD*%
D21*
%TO.C,R5*%
X113380000Y-79600000D03*
X121000000Y-79600000D03*
%TD*%
%TO.C,R4*%
X113380000Y-75550000D03*
X121000000Y-75550000D03*
%TD*%
%TO.C,R3*%
X113380000Y-71500000D03*
X121000000Y-71500000D03*
%TD*%
%TO.C,R2*%
X113380000Y-67450000D03*
X121000000Y-67450000D03*
%TD*%
D22*
%TO.C,Q2*%
X106030000Y-69000000D03*
D23*
X103490000Y-85660000D03*
D24*
X106030000Y-85660000D03*
X108570000Y-85660000D03*
%TD*%
D11*
%TO.C,J3*%
X103500000Y-90500000D03*
D10*
X105500000Y-90500000D03*
%TD*%
D21*
%TO.C,C2*%
X113380000Y-83700000D03*
X120880000Y-83700000D03*
%TD*%
M02*
