%TF.GenerationSoftware,KiCad,Pcbnew,9.0.6*%
%TF.CreationDate,2025-11-12T21:58:17-05:00*%
%TF.ProjectId,ESPAtomizer,45535041-746f-46d6-997a-65722e6b6963,rev?*%
%TF.SameCoordinates,Original*%
%TF.FileFunction,Legend,Top*%
%TF.FilePolarity,Positive*%
%FSLAX46Y46*%
G04 Gerber Fmt 4.6, Leading zero omitted, Abs format (unit mm)*
G04 Created by KiCad (PCBNEW 9.0.6) date 2025-11-12 21:58:17*
%MOMM*%
%LPD*%
G01*
G04 APERTURE LIST*
%ADD10C,0.150000*%
%ADD11C,0.100000*%
%ADD12C,0.120000*%
%ADD13C,0.127000*%
%ADD14C,0.504000*%
G04 APERTURE END LIST*
D10*
X114666666Y-87004819D02*
X114666666Y-87719104D01*
X114666666Y-87719104D02*
X114619047Y-87861961D01*
X114619047Y-87861961D02*
X114523809Y-87957200D01*
X114523809Y-87957200D02*
X114380952Y-88004819D01*
X114380952Y-88004819D02*
X114285714Y-88004819D01*
X115619047Y-87004819D02*
X115142857Y-87004819D01*
X115142857Y-87004819D02*
X115095238Y-87481009D01*
X115095238Y-87481009D02*
X115142857Y-87433390D01*
X115142857Y-87433390D02*
X115238095Y-87385771D01*
X115238095Y-87385771D02*
X115476190Y-87385771D01*
X115476190Y-87385771D02*
X115571428Y-87433390D01*
X115571428Y-87433390D02*
X115619047Y-87481009D01*
X115619047Y-87481009D02*
X115666666Y-87576247D01*
X115666666Y-87576247D02*
X115666666Y-87814342D01*
X115666666Y-87814342D02*
X115619047Y-87909580D01*
X115619047Y-87909580D02*
X115571428Y-87957200D01*
X115571428Y-87957200D02*
X115476190Y-88004819D01*
X115476190Y-88004819D02*
X115238095Y-88004819D01*
X115238095Y-88004819D02*
X115142857Y-87957200D01*
X115142857Y-87957200D02*
X115095238Y-87909580D01*
X99034819Y-100333333D02*
X99749104Y-100333333D01*
X99749104Y-100333333D02*
X99891961Y-100380952D01*
X99891961Y-100380952D02*
X99987200Y-100476190D01*
X99987200Y-100476190D02*
X100034819Y-100619047D01*
X100034819Y-100619047D02*
X100034819Y-100714285D01*
X99368152Y-99428571D02*
X100034819Y-99428571D01*
X98987200Y-99666666D02*
X99701485Y-99904761D01*
X99701485Y-99904761D02*
X99701485Y-99285714D01*
X82894819Y-100333333D02*
X83609104Y-100333333D01*
X83609104Y-100333333D02*
X83751961Y-100380952D01*
X83751961Y-100380952D02*
X83847200Y-100476190D01*
X83847200Y-100476190D02*
X83894819Y-100619047D01*
X83894819Y-100619047D02*
X83894819Y-100714285D01*
X82990057Y-99904761D02*
X82942438Y-99857142D01*
X82942438Y-99857142D02*
X82894819Y-99761904D01*
X82894819Y-99761904D02*
X82894819Y-99523809D01*
X82894819Y-99523809D02*
X82942438Y-99428571D01*
X82942438Y-99428571D02*
X82990057Y-99380952D01*
X82990057Y-99380952D02*
X83085295Y-99333333D01*
X83085295Y-99333333D02*
X83180533Y-99333333D01*
X83180533Y-99333333D02*
X83323390Y-99380952D01*
X83323390Y-99380952D02*
X83894819Y-99952380D01*
X83894819Y-99952380D02*
X83894819Y-99333333D01*
D11*
X89977095Y-66902919D02*
X89977095Y-67712442D01*
X89977095Y-67712442D02*
X90024714Y-67807680D01*
X90024714Y-67807680D02*
X90072333Y-67855300D01*
X90072333Y-67855300D02*
X90167571Y-67902919D01*
X90167571Y-67902919D02*
X90358047Y-67902919D01*
X90358047Y-67902919D02*
X90453285Y-67855300D01*
X90453285Y-67855300D02*
X90500904Y-67807680D01*
X90500904Y-67807680D02*
X90548523Y-67712442D01*
X90548523Y-67712442D02*
X90548523Y-66902919D01*
X90977095Y-66998157D02*
X91024714Y-66950538D01*
X91024714Y-66950538D02*
X91119952Y-66902919D01*
X91119952Y-66902919D02*
X91358047Y-66902919D01*
X91358047Y-66902919D02*
X91453285Y-66950538D01*
X91453285Y-66950538D02*
X91500904Y-66998157D01*
X91500904Y-66998157D02*
X91548523Y-67093395D01*
X91548523Y-67093395D02*
X91548523Y-67188633D01*
X91548523Y-67188633D02*
X91500904Y-67331490D01*
X91500904Y-67331490D02*
X90929476Y-67902919D01*
X90929476Y-67902919D02*
X91548523Y-67902919D01*
D10*
X84226667Y-83307200D02*
X84369524Y-83354819D01*
X84369524Y-83354819D02*
X84607619Y-83354819D01*
X84607619Y-83354819D02*
X84702857Y-83307200D01*
X84702857Y-83307200D02*
X84750476Y-83259580D01*
X84750476Y-83259580D02*
X84798095Y-83164342D01*
X84798095Y-83164342D02*
X84798095Y-83069104D01*
X84798095Y-83069104D02*
X84750476Y-82973866D01*
X84750476Y-82973866D02*
X84702857Y-82926247D01*
X84702857Y-82926247D02*
X84607619Y-82878628D01*
X84607619Y-82878628D02*
X84417143Y-82831009D01*
X84417143Y-82831009D02*
X84321905Y-82783390D01*
X84321905Y-82783390D02*
X84274286Y-82735771D01*
X84274286Y-82735771D02*
X84226667Y-82640533D01*
X84226667Y-82640533D02*
X84226667Y-82545295D01*
X84226667Y-82545295D02*
X84274286Y-82450057D01*
X84274286Y-82450057D02*
X84321905Y-82402438D01*
X84321905Y-82402438D02*
X84417143Y-82354819D01*
X84417143Y-82354819D02*
X84655238Y-82354819D01*
X84655238Y-82354819D02*
X84798095Y-82402438D01*
X85131429Y-82354819D02*
X85369524Y-83354819D01*
X85369524Y-83354819D02*
X85560000Y-82640533D01*
X85560000Y-82640533D02*
X85750476Y-83354819D01*
X85750476Y-83354819D02*
X85988572Y-82354819D01*
X86274286Y-82354819D02*
X86893333Y-82354819D01*
X86893333Y-82354819D02*
X86560000Y-82735771D01*
X86560000Y-82735771D02*
X86702857Y-82735771D01*
X86702857Y-82735771D02*
X86798095Y-82783390D01*
X86798095Y-82783390D02*
X86845714Y-82831009D01*
X86845714Y-82831009D02*
X86893333Y-82926247D01*
X86893333Y-82926247D02*
X86893333Y-83164342D01*
X86893333Y-83164342D02*
X86845714Y-83259580D01*
X86845714Y-83259580D02*
X86798095Y-83307200D01*
X86798095Y-83307200D02*
X86702857Y-83354819D01*
X86702857Y-83354819D02*
X86417143Y-83354819D01*
X86417143Y-83354819D02*
X86321905Y-83307200D01*
X86321905Y-83307200D02*
X86274286Y-83259580D01*
X112166667Y-62907200D02*
X112309524Y-62954819D01*
X112309524Y-62954819D02*
X112547619Y-62954819D01*
X112547619Y-62954819D02*
X112642857Y-62907200D01*
X112642857Y-62907200D02*
X112690476Y-62859580D01*
X112690476Y-62859580D02*
X112738095Y-62764342D01*
X112738095Y-62764342D02*
X112738095Y-62669104D01*
X112738095Y-62669104D02*
X112690476Y-62573866D01*
X112690476Y-62573866D02*
X112642857Y-62526247D01*
X112642857Y-62526247D02*
X112547619Y-62478628D01*
X112547619Y-62478628D02*
X112357143Y-62431009D01*
X112357143Y-62431009D02*
X112261905Y-62383390D01*
X112261905Y-62383390D02*
X112214286Y-62335771D01*
X112214286Y-62335771D02*
X112166667Y-62240533D01*
X112166667Y-62240533D02*
X112166667Y-62145295D01*
X112166667Y-62145295D02*
X112214286Y-62050057D01*
X112214286Y-62050057D02*
X112261905Y-62002438D01*
X112261905Y-62002438D02*
X112357143Y-61954819D01*
X112357143Y-61954819D02*
X112595238Y-61954819D01*
X112595238Y-61954819D02*
X112738095Y-62002438D01*
X113071429Y-61954819D02*
X113309524Y-62954819D01*
X113309524Y-62954819D02*
X113500000Y-62240533D01*
X113500000Y-62240533D02*
X113690476Y-62954819D01*
X113690476Y-62954819D02*
X113928572Y-61954819D01*
X114261905Y-62050057D02*
X114309524Y-62002438D01*
X114309524Y-62002438D02*
X114404762Y-61954819D01*
X114404762Y-61954819D02*
X114642857Y-61954819D01*
X114642857Y-61954819D02*
X114738095Y-62002438D01*
X114738095Y-62002438D02*
X114785714Y-62050057D01*
X114785714Y-62050057D02*
X114833333Y-62145295D01*
X114833333Y-62145295D02*
X114833333Y-62240533D01*
X114833333Y-62240533D02*
X114785714Y-62383390D01*
X114785714Y-62383390D02*
X114214286Y-62954819D01*
X114214286Y-62954819D02*
X114833333Y-62954819D01*
X117023333Y-77684819D02*
X116690000Y-77208628D01*
X116451905Y-77684819D02*
X116451905Y-76684819D01*
X116451905Y-76684819D02*
X116832857Y-76684819D01*
X116832857Y-76684819D02*
X116928095Y-76732438D01*
X116928095Y-76732438D02*
X116975714Y-76780057D01*
X116975714Y-76780057D02*
X117023333Y-76875295D01*
X117023333Y-76875295D02*
X117023333Y-77018152D01*
X117023333Y-77018152D02*
X116975714Y-77113390D01*
X116975714Y-77113390D02*
X116928095Y-77161009D01*
X116928095Y-77161009D02*
X116832857Y-77208628D01*
X116832857Y-77208628D02*
X116451905Y-77208628D01*
X117928095Y-76684819D02*
X117451905Y-76684819D01*
X117451905Y-76684819D02*
X117404286Y-77161009D01*
X117404286Y-77161009D02*
X117451905Y-77113390D01*
X117451905Y-77113390D02*
X117547143Y-77065771D01*
X117547143Y-77065771D02*
X117785238Y-77065771D01*
X117785238Y-77065771D02*
X117880476Y-77113390D01*
X117880476Y-77113390D02*
X117928095Y-77161009D01*
X117928095Y-77161009D02*
X117975714Y-77256247D01*
X117975714Y-77256247D02*
X117975714Y-77494342D01*
X117975714Y-77494342D02*
X117928095Y-77589580D01*
X117928095Y-77589580D02*
X117880476Y-77637200D01*
X117880476Y-77637200D02*
X117785238Y-77684819D01*
X117785238Y-77684819D02*
X117547143Y-77684819D01*
X117547143Y-77684819D02*
X117451905Y-77637200D01*
X117451905Y-77637200D02*
X117404286Y-77589580D01*
X117023333Y-73634819D02*
X116690000Y-73158628D01*
X116451905Y-73634819D02*
X116451905Y-72634819D01*
X116451905Y-72634819D02*
X116832857Y-72634819D01*
X116832857Y-72634819D02*
X116928095Y-72682438D01*
X116928095Y-72682438D02*
X116975714Y-72730057D01*
X116975714Y-72730057D02*
X117023333Y-72825295D01*
X117023333Y-72825295D02*
X117023333Y-72968152D01*
X117023333Y-72968152D02*
X116975714Y-73063390D01*
X116975714Y-73063390D02*
X116928095Y-73111009D01*
X116928095Y-73111009D02*
X116832857Y-73158628D01*
X116832857Y-73158628D02*
X116451905Y-73158628D01*
X117880476Y-72968152D02*
X117880476Y-73634819D01*
X117642381Y-72587200D02*
X117404286Y-73301485D01*
X117404286Y-73301485D02*
X118023333Y-73301485D01*
X117023333Y-69584819D02*
X116690000Y-69108628D01*
X116451905Y-69584819D02*
X116451905Y-68584819D01*
X116451905Y-68584819D02*
X116832857Y-68584819D01*
X116832857Y-68584819D02*
X116928095Y-68632438D01*
X116928095Y-68632438D02*
X116975714Y-68680057D01*
X116975714Y-68680057D02*
X117023333Y-68775295D01*
X117023333Y-68775295D02*
X117023333Y-68918152D01*
X117023333Y-68918152D02*
X116975714Y-69013390D01*
X116975714Y-69013390D02*
X116928095Y-69061009D01*
X116928095Y-69061009D02*
X116832857Y-69108628D01*
X116832857Y-69108628D02*
X116451905Y-69108628D01*
X117356667Y-68584819D02*
X117975714Y-68584819D01*
X117975714Y-68584819D02*
X117642381Y-68965771D01*
X117642381Y-68965771D02*
X117785238Y-68965771D01*
X117785238Y-68965771D02*
X117880476Y-69013390D01*
X117880476Y-69013390D02*
X117928095Y-69061009D01*
X117928095Y-69061009D02*
X117975714Y-69156247D01*
X117975714Y-69156247D02*
X117975714Y-69394342D01*
X117975714Y-69394342D02*
X117928095Y-69489580D01*
X117928095Y-69489580D02*
X117880476Y-69537200D01*
X117880476Y-69537200D02*
X117785238Y-69584819D01*
X117785238Y-69584819D02*
X117499524Y-69584819D01*
X117499524Y-69584819D02*
X117404286Y-69537200D01*
X117404286Y-69537200D02*
X117356667Y-69489580D01*
X117023333Y-65534819D02*
X116690000Y-65058628D01*
X116451905Y-65534819D02*
X116451905Y-64534819D01*
X116451905Y-64534819D02*
X116832857Y-64534819D01*
X116832857Y-64534819D02*
X116928095Y-64582438D01*
X116928095Y-64582438D02*
X116975714Y-64630057D01*
X116975714Y-64630057D02*
X117023333Y-64725295D01*
X117023333Y-64725295D02*
X117023333Y-64868152D01*
X117023333Y-64868152D02*
X116975714Y-64963390D01*
X116975714Y-64963390D02*
X116928095Y-65011009D01*
X116928095Y-65011009D02*
X116832857Y-65058628D01*
X116832857Y-65058628D02*
X116451905Y-65058628D01*
X117404286Y-64630057D02*
X117451905Y-64582438D01*
X117451905Y-64582438D02*
X117547143Y-64534819D01*
X117547143Y-64534819D02*
X117785238Y-64534819D01*
X117785238Y-64534819D02*
X117880476Y-64582438D01*
X117880476Y-64582438D02*
X117928095Y-64630057D01*
X117928095Y-64630057D02*
X117975714Y-64725295D01*
X117975714Y-64725295D02*
X117975714Y-64820533D01*
X117975714Y-64820533D02*
X117928095Y-64963390D01*
X117928095Y-64963390D02*
X117356667Y-65534819D01*
X117356667Y-65534819D02*
X117975714Y-65534819D01*
X105934761Y-65800057D02*
X105839523Y-65752438D01*
X105839523Y-65752438D02*
X105744285Y-65657200D01*
X105744285Y-65657200D02*
X105601428Y-65514342D01*
X105601428Y-65514342D02*
X105506190Y-65466723D01*
X105506190Y-65466723D02*
X105410952Y-65466723D01*
X105458571Y-65704819D02*
X105363333Y-65657200D01*
X105363333Y-65657200D02*
X105268095Y-65561961D01*
X105268095Y-65561961D02*
X105220476Y-65371485D01*
X105220476Y-65371485D02*
X105220476Y-65038152D01*
X105220476Y-65038152D02*
X105268095Y-64847676D01*
X105268095Y-64847676D02*
X105363333Y-64752438D01*
X105363333Y-64752438D02*
X105458571Y-64704819D01*
X105458571Y-64704819D02*
X105649047Y-64704819D01*
X105649047Y-64704819D02*
X105744285Y-64752438D01*
X105744285Y-64752438D02*
X105839523Y-64847676D01*
X105839523Y-64847676D02*
X105887142Y-65038152D01*
X105887142Y-65038152D02*
X105887142Y-65371485D01*
X105887142Y-65371485D02*
X105839523Y-65561961D01*
X105839523Y-65561961D02*
X105744285Y-65657200D01*
X105744285Y-65657200D02*
X105649047Y-65704819D01*
X105649047Y-65704819D02*
X105458571Y-65704819D01*
X106268095Y-64800057D02*
X106315714Y-64752438D01*
X106315714Y-64752438D02*
X106410952Y-64704819D01*
X106410952Y-64704819D02*
X106649047Y-64704819D01*
X106649047Y-64704819D02*
X106744285Y-64752438D01*
X106744285Y-64752438D02*
X106791904Y-64800057D01*
X106791904Y-64800057D02*
X106839523Y-64895295D01*
X106839523Y-64895295D02*
X106839523Y-64990533D01*
X106839523Y-64990533D02*
X106791904Y-65133390D01*
X106791904Y-65133390D02*
X106220476Y-65704819D01*
X106220476Y-65704819D02*
X106839523Y-65704819D01*
X104166666Y-87054819D02*
X104166666Y-87769104D01*
X104166666Y-87769104D02*
X104119047Y-87911961D01*
X104119047Y-87911961D02*
X104023809Y-88007200D01*
X104023809Y-88007200D02*
X103880952Y-88054819D01*
X103880952Y-88054819D02*
X103785714Y-88054819D01*
X104547619Y-87054819D02*
X105166666Y-87054819D01*
X105166666Y-87054819D02*
X104833333Y-87435771D01*
X104833333Y-87435771D02*
X104976190Y-87435771D01*
X104976190Y-87435771D02*
X105071428Y-87483390D01*
X105071428Y-87483390D02*
X105119047Y-87531009D01*
X105119047Y-87531009D02*
X105166666Y-87626247D01*
X105166666Y-87626247D02*
X105166666Y-87864342D01*
X105166666Y-87864342D02*
X105119047Y-87959580D01*
X105119047Y-87959580D02*
X105071428Y-88007200D01*
X105071428Y-88007200D02*
X104976190Y-88054819D01*
X104976190Y-88054819D02*
X104690476Y-88054819D01*
X104690476Y-88054819D02*
X104595238Y-88007200D01*
X104595238Y-88007200D02*
X104547619Y-87959580D01*
X116963333Y-81639580D02*
X116915714Y-81687200D01*
X116915714Y-81687200D02*
X116772857Y-81734819D01*
X116772857Y-81734819D02*
X116677619Y-81734819D01*
X116677619Y-81734819D02*
X116534762Y-81687200D01*
X116534762Y-81687200D02*
X116439524Y-81591961D01*
X116439524Y-81591961D02*
X116391905Y-81496723D01*
X116391905Y-81496723D02*
X116344286Y-81306247D01*
X116344286Y-81306247D02*
X116344286Y-81163390D01*
X116344286Y-81163390D02*
X116391905Y-80972914D01*
X116391905Y-80972914D02*
X116439524Y-80877676D01*
X116439524Y-80877676D02*
X116534762Y-80782438D01*
X116534762Y-80782438D02*
X116677619Y-80734819D01*
X116677619Y-80734819D02*
X116772857Y-80734819D01*
X116772857Y-80734819D02*
X116915714Y-80782438D01*
X116915714Y-80782438D02*
X116963333Y-80830057D01*
X117344286Y-80830057D02*
X117391905Y-80782438D01*
X117391905Y-80782438D02*
X117487143Y-80734819D01*
X117487143Y-80734819D02*
X117725238Y-80734819D01*
X117725238Y-80734819D02*
X117820476Y-80782438D01*
X117820476Y-80782438D02*
X117868095Y-80830057D01*
X117868095Y-80830057D02*
X117915714Y-80925295D01*
X117915714Y-80925295D02*
X117915714Y-81020533D01*
X117915714Y-81020533D02*
X117868095Y-81163390D01*
X117868095Y-81163390D02*
X117296667Y-81734819D01*
X117296667Y-81734819D02*
X117915714Y-81734819D01*
D12*
%TO.C,J5*%
X118060000Y-93360000D02*
X118060000Y-88640000D01*
X118060000Y-91250000D02*
X117450000Y-91250000D01*
X118060000Y-89950000D02*
X117450000Y-89950000D01*
X118060000Y-88640000D02*
X111940000Y-88640000D01*
X117450000Y-92750000D02*
X117450000Y-89250000D01*
X117450000Y-89250000D02*
X115500000Y-89250000D01*
X115500000Y-89250000D02*
X115500000Y-88640000D01*
X115100000Y-92250000D02*
X115100000Y-92750000D01*
X115000000Y-92750000D02*
X115000000Y-92250000D01*
X114900000Y-92750000D02*
X114900000Y-92250000D01*
X114900000Y-92250000D02*
X115100000Y-92250000D01*
X114500000Y-89250000D02*
X112550000Y-89250000D01*
X114500000Y-88640000D02*
X114500000Y-89250000D01*
X113700000Y-88640000D02*
X113700000Y-88440000D01*
X113700000Y-88540000D02*
X113400000Y-88540000D01*
X113700000Y-88440000D02*
X113400000Y-88440000D01*
X113400000Y-88440000D02*
X113400000Y-88640000D01*
X112890000Y-88340000D02*
X111640000Y-88340000D01*
X112550000Y-92750000D02*
X117450000Y-92750000D01*
X112550000Y-89250000D02*
X112550000Y-92750000D01*
X111940000Y-93360000D02*
X118060000Y-93360000D01*
X111940000Y-91250000D02*
X112550000Y-91250000D01*
X111940000Y-89950000D02*
X112550000Y-89950000D01*
X111940000Y-88640000D02*
X111940000Y-93360000D01*
X111640000Y-88340000D02*
X111640000Y-89590000D01*
%TO.C,J4*%
X103230000Y-98620000D02*
X113500000Y-98620000D01*
X113500000Y-101380000D02*
X113500000Y-98620000D01*
X103230000Y-101380000D02*
X103230000Y-98620000D01*
X103230000Y-101380000D02*
X113500000Y-101380000D01*
X101960000Y-101380000D02*
X100580000Y-101380000D01*
X100580000Y-101380000D02*
X100580000Y-100000000D01*
%TO.C,J2*%
X87480000Y-98670000D02*
X95160000Y-98670000D01*
X84880000Y-98670000D02*
X86210000Y-98670000D01*
X84880000Y-100000000D02*
X84880000Y-98670000D01*
X95160000Y-101330000D02*
X95160000Y-98670000D01*
X87480000Y-101330000D02*
X87480000Y-98670000D01*
X87480000Y-101330000D02*
X95160000Y-101330000D01*
%TO.C,U2*%
X81739000Y-62549500D02*
X81739000Y-81209500D01*
X81739000Y-62549500D02*
X83069000Y-62549500D01*
X81739000Y-81209500D02*
X84399000Y-81209500D01*
D11*
X81798999Y-80012499D02*
X81798999Y-62867499D01*
D13*
X81799000Y-80008500D02*
X81799000Y-62863500D01*
D12*
X83069000Y-62549500D02*
X84399000Y-62549500D01*
D11*
X83703999Y-81917499D02*
X97673999Y-81917499D01*
D13*
X83704000Y-81913500D02*
X97674000Y-81913500D01*
D12*
X84399000Y-62549500D02*
X84399000Y-81209500D01*
D13*
X86193999Y-60962499D02*
X86197727Y-59952227D01*
X86194000Y-60958500D02*
X86197728Y-59948228D01*
X86697727Y-59452499D02*
X94692999Y-59452499D01*
X86697728Y-59448500D02*
X94693000Y-59448500D01*
X95192999Y-59952499D02*
X95192999Y-60962499D01*
X95193000Y-59948500D02*
X95193000Y-60958500D01*
D12*
X96979000Y-62549500D02*
X96979000Y-81209500D01*
X96979000Y-62549500D02*
X98309000Y-62549500D01*
X96979000Y-81209500D02*
X99639000Y-81209500D01*
D11*
X97673999Y-60962499D02*
X83703999Y-60962499D01*
X97674000Y-60958500D02*
X83704000Y-60958500D01*
D13*
X97674000Y-60958500D02*
X83704000Y-60958500D01*
D12*
X98309000Y-62549500D02*
X99639000Y-62549500D01*
D11*
X99578999Y-80012499D02*
X99578999Y-62867499D01*
D12*
X99639000Y-62549500D02*
X99639000Y-81209500D01*
D11*
X81798999Y-62863499D02*
G75*
G02*
X83703999Y-60958499I1905001J-1D01*
G01*
D13*
X81799000Y-62863500D02*
G75*
G02*
X83704000Y-60958500I1905001J-1D01*
G01*
D11*
X83703999Y-81917499D02*
G75*
G02*
X81798999Y-80012499I1J1905001D01*
G01*
D13*
X83704000Y-81913500D02*
G75*
G02*
X81799000Y-80008500I1J1905001D01*
G01*
X86197727Y-59952227D02*
G75*
G02*
X86697727Y-59452500I500018J-291D01*
G01*
X86197728Y-59948228D02*
G75*
G02*
X86697728Y-59448501I500018J-291D01*
G01*
X94692999Y-59452499D02*
G75*
G02*
X95193001Y-59952499I1J-500001D01*
G01*
X94693000Y-59448500D02*
G75*
G02*
X95193000Y-59948500I0J-500000D01*
G01*
D11*
X97673999Y-60962499D02*
G75*
G02*
X99579001Y-62867499I1J-1905001D01*
G01*
D13*
X97674000Y-60958500D02*
G75*
G02*
X99579000Y-62863500I0J-1905000D01*
G01*
D11*
X99578999Y-80012499D02*
G75*
G02*
X97673999Y-81917499I-1904999J-1D01*
G01*
D13*
X99579000Y-80008500D02*
G75*
G02*
X97674000Y-81913500I-1905000J0D01*
G01*
D14*
X81991000Y-61199500D02*
G75*
G02*
X81487000Y-61199500I-252000J0D01*
G01*
X81487000Y-61199500D02*
G75*
G02*
X81991000Y-61199500I252000J0D01*
G01*
X83134000Y-62079500D02*
G75*
G02*
X82630000Y-62079500I-252000J0D01*
G01*
X82630000Y-62079500D02*
G75*
G02*
X83134000Y-62079500I252000J0D01*
G01*
D12*
X90207599Y-77031199D02*
G75*
G02*
X87607599Y-77031199I-1300000J0D01*
G01*
X87607599Y-77031199D02*
G75*
G02*
X90207599Y-77031199I1300000J0D01*
G01*
X92747599Y-77031199D02*
G75*
G02*
X90147599Y-77031199I-1300000J0D01*
G01*
X90147599Y-77031199D02*
G75*
G02*
X92747599Y-77031199I1300000J0D01*
G01*
%TO.C,SW3*%
X84160000Y-84200000D02*
X88260000Y-84200000D01*
X88260000Y-84200000D02*
X88260000Y-96000000D01*
X88260000Y-96000000D02*
X84160000Y-96000000D01*
X84160000Y-96000000D02*
X84160000Y-84200000D01*
X93260000Y-90100000D02*
G75*
G02*
X87260000Y-90100000I-3000000J0D01*
G01*
X87260000Y-90100000D02*
G75*
G02*
X93260000Y-90100000I3000000J0D01*
G01*
%TO.C,SW2*%
X102000000Y-61000000D02*
X112000000Y-61000000D01*
X102000000Y-61000000D02*
X102000000Y-65000000D01*
X112000000Y-61000000D02*
X112000000Y-65000000D01*
X102000000Y-65000000D02*
X112000000Y-65000000D01*
%TO.C,Q2*%
X100920000Y-66090000D02*
X111140000Y-66090000D01*
X100920000Y-81960000D02*
X100920000Y-66090000D01*
X100920000Y-81960000D02*
X111140000Y-81960000D01*
X103005000Y-81960000D02*
X103005000Y-84400000D01*
X103975000Y-81960000D02*
X103975000Y-84400000D01*
X105545000Y-81960000D02*
X105545000Y-84400000D01*
X106515000Y-81960000D02*
X106515000Y-84400000D01*
X108085000Y-81960000D02*
X108085000Y-84400000D01*
X109055000Y-81960000D02*
X109055000Y-84400000D01*
X111140000Y-81960000D02*
X111140000Y-66090000D01*
%TO.C,J3*%
X101140000Y-88390000D02*
X101140000Y-89640000D01*
X101440000Y-88690000D02*
X101440000Y-93410000D01*
X101440000Y-90000000D02*
X102050000Y-90000000D01*
X101440000Y-91300000D02*
X102050000Y-91300000D01*
X101440000Y-93410000D02*
X107560000Y-93410000D01*
X102050000Y-89300000D02*
X102050000Y-92800000D01*
X102050000Y-92800000D02*
X106950000Y-92800000D01*
X102390000Y-88390000D02*
X101140000Y-88390000D01*
X102900000Y-88490000D02*
X102900000Y-88690000D01*
X103200000Y-88490000D02*
X102900000Y-88490000D01*
X103200000Y-88590000D02*
X102900000Y-88590000D01*
X103200000Y-88690000D02*
X103200000Y-88490000D01*
X104000000Y-88690000D02*
X104000000Y-89300000D01*
X104000000Y-89300000D02*
X102050000Y-89300000D01*
X104400000Y-92300000D02*
X104600000Y-92300000D01*
X104400000Y-92800000D02*
X104400000Y-92300000D01*
X104500000Y-92800000D02*
X104500000Y-92300000D01*
X104600000Y-92300000D02*
X104600000Y-92800000D01*
X105000000Y-89300000D02*
X105000000Y-88690000D01*
X106950000Y-89300000D02*
X105000000Y-89300000D01*
X106950000Y-92800000D02*
X106950000Y-89300000D01*
X107560000Y-88690000D02*
X101440000Y-88690000D01*
X107560000Y-90000000D02*
X106950000Y-90000000D01*
X107560000Y-91300000D02*
X106950000Y-91300000D01*
X107560000Y-93410000D02*
X107560000Y-88690000D01*
%TO.C,C2*%
X114420000Y-83700000D02*
X115110000Y-83700000D01*
X119840000Y-83700000D02*
X119150000Y-83700000D01*
X115110000Y-82280000D02*
X119150000Y-82280000D01*
X119150000Y-85120000D01*
X115110000Y-85120000D01*
X115110000Y-82280000D01*
%TD*%
M02*
