%TF.GenerationSoftware,KiCad,Pcbnew,9.0.6*%
%TF.CreationDate,2025-11-12T21:58:17-05:00*%
%TF.ProjectId,ESPAtomizer,45535041-746f-46d6-997a-65722e6b6963,rev?*%
%TF.SameCoordinates,Original*%
%TF.FileFunction,Copper,L2,Bot*%
%TF.FilePolarity,Positive*%
%FSLAX46Y46*%
G04 Gerber Fmt 4.6, Leading zero omitted, Abs format (unit mm)*
G04 Created by KiCad (PCBNEW 9.0.6) date 2025-11-12 21:58:17*
%MOMM*%
%LPD*%
G01*
G04 APERTURE LIST*
G04 Aperture macros list*
%AMRoundRect*
0 Rectangle with rounded corners*
0 $1 Rounding radius*
0 $2 $3 $4 $5 $6 $7 $8 $9 X,Y pos of 4 corners*
0 Add a 4 corners polygon primitive as box body*
4,1,4,$2,$3,$4,$5,$6,$7,$8,$9,$2,$3,0*
0 Add four circle primitives for the rounded corners*
1,1,$1+$1,$2,$3*
1,1,$1+$1,$4,$5*
1,1,$1+$1,$6,$7*
1,1,$1+$1,$8,$9*
0 Add four rect primitives between the rounded corners*
20,1,$1+$1,$2,$3,$4,$5,0*
20,1,$1+$1,$4,$5,$6,$7,0*
20,1,$1+$1,$6,$7,$8,$9,0*
20,1,$1+$1,$8,$9,$2,$3,0*%
G04 Aperture macros list end*
%TA.AperFunction,ComponentPad*%
%ADD10O,1.200000X1.750000*%
%TD*%
%TA.AperFunction,ComponentPad*%
%ADD11RoundRect,0.250000X-0.350000X-0.625000X0.350000X-0.625000X0.350000X0.625000X-0.350000X0.625000X0*%
%TD*%
%TA.AperFunction,ComponentPad*%
%ADD12C,1.700000*%
%TD*%
%TA.AperFunction,ComponentPad*%
%ADD13R,1.700000X1.700000*%
%TD*%
%TA.AperFunction,ComponentPad*%
%ADD14C,1.524000*%
%TD*%
%TA.AperFunction,ComponentPad*%
%ADD15O,1.700000X1.700000*%
%TD*%
%TA.AperFunction,ComponentPad*%
%ADD16C,2.200000*%
%TD*%
%TA.AperFunction,ComponentPad*%
%ADD17R,2.000000X2.000000*%
%TD*%
%TA.AperFunction,ComponentPad*%
%ADD18C,2.000000*%
%TD*%
%TA.AperFunction,ComponentPad*%
%ADD19R,3.200000X2.000000*%
%TD*%
%TA.AperFunction,ComponentPad*%
%ADD20C,1.800000*%
%TD*%
%TA.AperFunction,ComponentPad*%
%ADD21C,1.600000*%
%TD*%
%TA.AperFunction,ComponentPad*%
%ADD22R,1.905000X2.000000*%
%TD*%
%TA.AperFunction,ComponentPad*%
%ADD23O,1.905000X2.000000*%
%TD*%
%TA.AperFunction,ViaPad*%
%ADD24C,0.600000*%
%TD*%
%TA.AperFunction,Conductor*%
%ADD25C,0.200000*%
%TD*%
%TA.AperFunction,Conductor*%
%ADD26C,2.500000*%
%TD*%
G04 APERTURE END LIST*
D10*
%TO.P,J5,2,Pin_2*%
%TO.N,/D*%
X116000000Y-90450000D03*
D11*
%TO.P,J5,1,Pin_1*%
%TO.N,/BAT+*%
X114000000Y-90450000D03*
%TD*%
D12*
%TO.P,J4,5,Pin_5*%
%TO.N,/MAX_SO*%
X112120000Y-100000000D03*
%TO.P,J4,4,Pin_4*%
%TO.N,/MAX_CS*%
X109580000Y-100000000D03*
%TO.P,J4,3,Pin_3*%
%TO.N,/MAX_SCK*%
X107040000Y-100000000D03*
%TO.P,J4,2,Pin_2*%
%TO.N,/VCC*%
X104500000Y-100000000D03*
D13*
%TO.P,J4,1,Pin_1*%
%TO.N,GND*%
X101960000Y-100000000D03*
%TD*%
D12*
%TO.P,J2,4,Pin_4*%
%TO.N,/SDA*%
X93830000Y-100000000D03*
%TO.P,J2,3,Pin_3*%
%TO.N,/SCL*%
X91290000Y-100000000D03*
%TO.P,J2,2,Pin_2*%
%TO.N,/VCC*%
X88750000Y-100000000D03*
D13*
%TO.P,J2,1,Pin_1*%
%TO.N,GND*%
X86210000Y-100000000D03*
%TD*%
%TO.P,U2,1,GPIO0_A0_D0*%
%TO.N,/MOSFET_GATE*%
X83069000Y-63879500D03*
D14*
%TO.P,U2,2,GPIO1_A1_D1*%
%TO.N,/SCL*%
X83069000Y-66419500D03*
%TO.P,U2,3,GPIO2_A2_D2*%
%TO.N,/SDA*%
X83069000Y-68959500D03*
%TO.P,U2,4,GPIO21_D3*%
%TO.N,/BAT_ADC*%
X83069000Y-71499500D03*
%TO.P,U2,5,GPIO22_D4_SDA*%
%TO.N,/ENC_SW*%
X83069000Y-74039500D03*
%TO.P,U2,6,GPIO23_D5_SCL*%
%TO.N,/ENC_B*%
X83069000Y-76579500D03*
%TO.P,U2,7,GPIO16_D6_TX*%
%TO.N,/ENC_A*%
X83069000Y-79119500D03*
D15*
%TO.P,U2,8,GPIO17_D7_RX*%
%TO.N,unconnected-(U2-GPIO17_D7_RX-Pad8)*%
X98309000Y-79119500D03*
%TO.P,U2,9,GPIO19_D8_SCK*%
%TO.N,/MAX_SO*%
X98309000Y-76579500D03*
%TO.P,U2,10,GPIO20_D9_MISO*%
%TO.N,/MAX_CS*%
X98309000Y-74039500D03*
%TO.P,U2,11,GPIO18_D10_MOSI*%
%TO.N,/MAX_SCK*%
X98309000Y-71499500D03*
%TO.P,U2,12,3V3*%
%TO.N,/VCC*%
X98309000Y-68959500D03*
%TO.P,U2,13,GND*%
%TO.N,GND*%
X98309000Y-66419500D03*
D13*
%TO.P,U2,14,VBUS*%
%TO.N,unconnected-(U2-VBUS-Pad14)*%
X98309000Y-63879500D03*
D16*
%TO.P,U2,32,BAT*%
%TO.N,/BAT+*%
X88907599Y-77031199D03*
%TO.P,U2,33,GND*%
%TO.N,GND*%
X91447599Y-77031199D03*
%TD*%
D17*
%TO.P,SW3,A,A*%
%TO.N,/ENC_A*%
X82760000Y-87600000D03*
D18*
%TO.P,SW3,C,C*%
%TO.N,/ENC_B*%
X82760000Y-90100000D03*
%TO.P,SW3,B,B*%
%TO.N,GND*%
X82760000Y-92600000D03*
%TO.P,SW3,S2,S2*%
X97260000Y-87600000D03*
%TO.P,SW3,S1,S1*%
%TO.N,/ENC_SW*%
X97260000Y-92600000D03*
D19*
%TO.P,SW3,MP*%
%TO.N,N/C*%
X90260000Y-84500000D03*
X90260000Y-95700000D03*
%TD*%
D20*
%TO.P,SW2,1,A*%
%TO.N,/BAT+*%
X104500000Y-63000000D03*
%TO.P,SW2,2,B*%
%TO.N,Net-(J3-Pin_2)*%
X109500000Y-63000000D03*
%TD*%
D21*
%TO.P,R5,1*%
%TO.N,/MOSFET_GATE*%
X113380000Y-79600000D03*
%TO.P,R5,2*%
%TO.N,/G*%
X121000000Y-79600000D03*
%TD*%
%TO.P,R4,1*%
%TO.N,/G*%
X113380000Y-75550000D03*
%TO.P,R4,2*%
%TO.N,GND*%
X121000000Y-75550000D03*
%TD*%
%TO.P,R3,1*%
%TO.N,/BAT_ADC*%
X113380000Y-71500000D03*
%TO.P,R3,2*%
%TO.N,/BAT+*%
X121000000Y-71500000D03*
%TD*%
%TO.P,R2,1*%
%TO.N,GND*%
X113380000Y-67450000D03*
%TO.P,R2,2*%
%TO.N,/BAT_ADC*%
X121000000Y-67450000D03*
%TD*%
D22*
%TO.P,Q2,1,G*%
%TO.N,/G*%
X103490000Y-85660000D03*
D23*
%TO.P,Q2,2,D*%
%TO.N,GND*%
X106030000Y-85660000D03*
%TO.P,Q2,3,S*%
%TO.N,/D*%
X108570000Y-85660000D03*
%TD*%
D11*
%TO.P,J3,1,Pin_1*%
%TO.N,GND*%
X103500000Y-90500000D03*
D10*
%TO.P,J3,2,Pin_2*%
%TO.N,Net-(J3-Pin_2)*%
X105500000Y-90500000D03*
%TD*%
D21*
%TO.P,C2,1*%
%TO.N,GND*%
X113380000Y-83700000D03*
%TO.P,C2,2*%
%TO.N,/BAT_ADC*%
X120880000Y-83700000D03*
%TD*%
D24*
%TO.N,/MAX_CS*%
X101500000Y-97000000D03*
%TO.N,/MAX_SO*%
X103000000Y-97000000D03*
%TD*%
D25*
%TO.N,/MAX_CS*%
X102101000Y-97601000D02*
X107181000Y-97601000D01*
X107181000Y-97601000D02*
X109580000Y-100000000D01*
X101500000Y-97000000D02*
X102101000Y-97601000D01*
%TO.N,/MAX_SO*%
X109120000Y-97000000D02*
X112120000Y-100000000D01*
X103000000Y-97000000D02*
X109120000Y-97000000D01*
%TO.N,/BAT+*%
X110500000Y-61000000D02*
X106500000Y-61000000D01*
X121000000Y-71500000D02*
X110500000Y-61000000D01*
X106500000Y-61000000D02*
X104500000Y-63000000D01*
%TO.N,/VCC*%
X103000000Y-101500000D02*
X104500000Y-100000000D01*
X90250000Y-101500000D02*
X103000000Y-101500000D01*
X88750000Y-100000000D02*
X90250000Y-101500000D01*
D26*
%TO.N,/BAT+*%
X95309000Y-95051000D02*
X109399000Y-95051000D01*
X113949000Y-90501000D02*
X113949000Y-90450000D01*
X87209000Y-86951000D02*
X95309000Y-95051000D01*
X87209000Y-78718798D02*
X87209000Y-86951000D01*
X109399000Y-95051000D02*
X113949000Y-90501000D01*
X88896599Y-77031199D02*
X87209000Y-78718798D01*
%TO.N,GND*%
X102850000Y-89850000D02*
X102850000Y-90500000D01*
X97260000Y-87600000D02*
X100600000Y-87600000D01*
X100600000Y-87600000D02*
X102850000Y-89850000D01*
X97260000Y-82693600D02*
X91597599Y-77031199D01*
X97260000Y-87600000D02*
X97260000Y-82693600D01*
X105893500Y-83209000D02*
X101651000Y-83209000D01*
X106030000Y-83345500D02*
X105893500Y-83209000D01*
X106030000Y-85660000D02*
X106030000Y-83345500D01*
X101651000Y-83209000D02*
X97260000Y-87600000D01*
X113675500Y-82874500D02*
X113675500Y-83700000D01*
X121000000Y-75550000D02*
X113675500Y-82874500D01*
%TO.N,Net-(J3-Pin_2)*%
X107176562Y-90500000D02*
X105551000Y-90500000D01*
X110680000Y-82581624D02*
X110680000Y-84323438D01*
X110973500Y-82288124D02*
X110680000Y-82581624D01*
X110973500Y-68861876D02*
X110973500Y-82288124D01*
X110973500Y-84616938D02*
X110973500Y-86703062D01*
X109500000Y-67388376D02*
X110973500Y-68861876D01*
X110680000Y-84323438D02*
X110973500Y-84616938D01*
X110973500Y-86703062D02*
X107176562Y-90500000D01*
X109500000Y-63000000D02*
X109500000Y-67388376D01*
%TO.N,GND*%
X121000000Y-75550000D02*
X121000000Y-75070000D01*
X121000000Y-75070000D02*
X113380000Y-67450000D01*
%TO.N,/BAT+*%
X96008000Y-61578500D02*
X88896599Y-68689901D01*
X104500000Y-63000000D02*
X103078500Y-61578500D01*
X103078500Y-61578500D02*
X96008000Y-61578500D01*
X88896599Y-68689901D02*
X88896599Y-77031199D01*
%TD*%
M02*
