%TF.GenerationSoftware,KiCad,Pcbnew,9.0.6*%
%TF.CreationDate,2025-11-12T21:22:31-05:00*%
%TF.ProjectId,ESPAtomizer,45535041-746f-46d6-997a-65722e6b6963,rev?*%
%TF.SameCoordinates,Original*%
%TF.FileFunction,Legend,Top*%
%TF.FilePolarity,Positive*%
%FSLAX46Y46*%
G04 Gerber Fmt 4.6, Leading zero omitted, Abs format (unit mm)*
G04 Created by KiCad (PCBNEW 9.0.6) date 2025-11-12 21:22:31*
%MOMM*%
%LPD*%
G01*
G04 APERTURE LIST*
%ADD10C,0.150000*%
%ADD11C,0.100000*%
%ADD12C,0.120000*%
%ADD13C,0.127000*%
%ADD14C,0.504000*%
G04 APERTURE END LIST*
D10*
X62213333Y-85954819D02*
X61880000Y-85478628D01*
X61641905Y-85954819D02*
X61641905Y-84954819D01*
X61641905Y-84954819D02*
X62022857Y-84954819D01*
X62022857Y-84954819D02*
X62118095Y-85002438D01*
X62118095Y-85002438D02*
X62165714Y-85050057D01*
X62165714Y-85050057D02*
X62213333Y-85145295D01*
X62213333Y-85145295D02*
X62213333Y-85288152D01*
X62213333Y-85288152D02*
X62165714Y-85383390D01*
X62165714Y-85383390D02*
X62118095Y-85431009D01*
X62118095Y-85431009D02*
X62022857Y-85478628D01*
X62022857Y-85478628D02*
X61641905Y-85478628D01*
X63070476Y-85288152D02*
X63070476Y-85954819D01*
X62832381Y-84907200D02*
X62594286Y-85621485D01*
X62594286Y-85621485D02*
X63213333Y-85621485D01*
X83713333Y-97454819D02*
X83380000Y-96978628D01*
X83141905Y-97454819D02*
X83141905Y-96454819D01*
X83141905Y-96454819D02*
X83522857Y-96454819D01*
X83522857Y-96454819D02*
X83618095Y-96502438D01*
X83618095Y-96502438D02*
X83665714Y-96550057D01*
X83665714Y-96550057D02*
X83713333Y-96645295D01*
X83713333Y-96645295D02*
X83713333Y-96788152D01*
X83713333Y-96788152D02*
X83665714Y-96883390D01*
X83665714Y-96883390D02*
X83618095Y-96931009D01*
X83618095Y-96931009D02*
X83522857Y-96978628D01*
X83522857Y-96978628D02*
X83141905Y-96978628D01*
X84046667Y-96454819D02*
X84665714Y-96454819D01*
X84665714Y-96454819D02*
X84332381Y-96835771D01*
X84332381Y-96835771D02*
X84475238Y-96835771D01*
X84475238Y-96835771D02*
X84570476Y-96883390D01*
X84570476Y-96883390D02*
X84618095Y-96931009D01*
X84618095Y-96931009D02*
X84665714Y-97026247D01*
X84665714Y-97026247D02*
X84665714Y-97264342D01*
X84665714Y-97264342D02*
X84618095Y-97359580D01*
X84618095Y-97359580D02*
X84570476Y-97407200D01*
X84570476Y-97407200D02*
X84475238Y-97454819D01*
X84475238Y-97454819D02*
X84189524Y-97454819D01*
X84189524Y-97454819D02*
X84094286Y-97407200D01*
X84094286Y-97407200D02*
X84046667Y-97359580D01*
X77054819Y-56833333D02*
X77769104Y-56833333D01*
X77769104Y-56833333D02*
X77911961Y-56880952D01*
X77911961Y-56880952D02*
X78007200Y-56976190D01*
X78007200Y-56976190D02*
X78054819Y-57119047D01*
X78054819Y-57119047D02*
X78054819Y-57214285D01*
X77054819Y-56452380D02*
X77054819Y-55833333D01*
X77054819Y-55833333D02*
X77435771Y-56166666D01*
X77435771Y-56166666D02*
X77435771Y-56023809D01*
X77435771Y-56023809D02*
X77483390Y-55928571D01*
X77483390Y-55928571D02*
X77531009Y-55880952D01*
X77531009Y-55880952D02*
X77626247Y-55833333D01*
X77626247Y-55833333D02*
X77864342Y-55833333D01*
X77864342Y-55833333D02*
X77959580Y-55880952D01*
X77959580Y-55880952D02*
X78007200Y-55928571D01*
X78007200Y-55928571D02*
X78054819Y-56023809D01*
X78054819Y-56023809D02*
X78054819Y-56309523D01*
X78054819Y-56309523D02*
X78007200Y-56404761D01*
X78007200Y-56404761D02*
X77959580Y-56452380D01*
X72166667Y-78407200D02*
X72309524Y-78454819D01*
X72309524Y-78454819D02*
X72547619Y-78454819D01*
X72547619Y-78454819D02*
X72642857Y-78407200D01*
X72642857Y-78407200D02*
X72690476Y-78359580D01*
X72690476Y-78359580D02*
X72738095Y-78264342D01*
X72738095Y-78264342D02*
X72738095Y-78169104D01*
X72738095Y-78169104D02*
X72690476Y-78073866D01*
X72690476Y-78073866D02*
X72642857Y-78026247D01*
X72642857Y-78026247D02*
X72547619Y-77978628D01*
X72547619Y-77978628D02*
X72357143Y-77931009D01*
X72357143Y-77931009D02*
X72261905Y-77883390D01*
X72261905Y-77883390D02*
X72214286Y-77835771D01*
X72214286Y-77835771D02*
X72166667Y-77740533D01*
X72166667Y-77740533D02*
X72166667Y-77645295D01*
X72166667Y-77645295D02*
X72214286Y-77550057D01*
X72214286Y-77550057D02*
X72261905Y-77502438D01*
X72261905Y-77502438D02*
X72357143Y-77454819D01*
X72357143Y-77454819D02*
X72595238Y-77454819D01*
X72595238Y-77454819D02*
X72738095Y-77502438D01*
X73071429Y-77454819D02*
X73309524Y-78454819D01*
X73309524Y-78454819D02*
X73500000Y-77740533D01*
X73500000Y-77740533D02*
X73690476Y-78454819D01*
X73690476Y-78454819D02*
X73928572Y-77454819D01*
X74214286Y-77454819D02*
X74833333Y-77454819D01*
X74833333Y-77454819D02*
X74500000Y-77835771D01*
X74500000Y-77835771D02*
X74642857Y-77835771D01*
X74642857Y-77835771D02*
X74738095Y-77883390D01*
X74738095Y-77883390D02*
X74785714Y-77931009D01*
X74785714Y-77931009D02*
X74833333Y-78026247D01*
X74833333Y-78026247D02*
X74833333Y-78264342D01*
X74833333Y-78264342D02*
X74785714Y-78359580D01*
X74785714Y-78359580D02*
X74738095Y-78407200D01*
X74738095Y-78407200D02*
X74642857Y-78454819D01*
X74642857Y-78454819D02*
X74357143Y-78454819D01*
X74357143Y-78454819D02*
X74261905Y-78407200D01*
X74261905Y-78407200D02*
X74214286Y-78359580D01*
X62213333Y-89954819D02*
X61880000Y-89478628D01*
X61641905Y-89954819D02*
X61641905Y-88954819D01*
X61641905Y-88954819D02*
X62022857Y-88954819D01*
X62022857Y-88954819D02*
X62118095Y-89002438D01*
X62118095Y-89002438D02*
X62165714Y-89050057D01*
X62165714Y-89050057D02*
X62213333Y-89145295D01*
X62213333Y-89145295D02*
X62213333Y-89288152D01*
X62213333Y-89288152D02*
X62165714Y-89383390D01*
X62165714Y-89383390D02*
X62118095Y-89431009D01*
X62118095Y-89431009D02*
X62022857Y-89478628D01*
X62022857Y-89478628D02*
X61641905Y-89478628D01*
X63118095Y-88954819D02*
X62641905Y-88954819D01*
X62641905Y-88954819D02*
X62594286Y-89431009D01*
X62594286Y-89431009D02*
X62641905Y-89383390D01*
X62641905Y-89383390D02*
X62737143Y-89335771D01*
X62737143Y-89335771D02*
X62975238Y-89335771D01*
X62975238Y-89335771D02*
X63070476Y-89383390D01*
X63070476Y-89383390D02*
X63118095Y-89431009D01*
X63118095Y-89431009D02*
X63165714Y-89526247D01*
X63165714Y-89526247D02*
X63165714Y-89764342D01*
X63165714Y-89764342D02*
X63118095Y-89859580D01*
X63118095Y-89859580D02*
X63070476Y-89907200D01*
X63070476Y-89907200D02*
X62975238Y-89954819D01*
X62975238Y-89954819D02*
X62737143Y-89954819D01*
X62737143Y-89954819D02*
X62641905Y-89907200D01*
X62641905Y-89907200D02*
X62594286Y-89859580D01*
D11*
X65238095Y-46457419D02*
X65238095Y-47266942D01*
X65238095Y-47266942D02*
X65285714Y-47362180D01*
X65285714Y-47362180D02*
X65333333Y-47409800D01*
X65333333Y-47409800D02*
X65428571Y-47457419D01*
X65428571Y-47457419D02*
X65619047Y-47457419D01*
X65619047Y-47457419D02*
X65714285Y-47409800D01*
X65714285Y-47409800D02*
X65761904Y-47362180D01*
X65761904Y-47362180D02*
X65809523Y-47266942D01*
X65809523Y-47266942D02*
X65809523Y-46457419D01*
X66238095Y-46552657D02*
X66285714Y-46505038D01*
X66285714Y-46505038D02*
X66380952Y-46457419D01*
X66380952Y-46457419D02*
X66619047Y-46457419D01*
X66619047Y-46457419D02*
X66714285Y-46505038D01*
X66714285Y-46505038D02*
X66761904Y-46552657D01*
X66761904Y-46552657D02*
X66809523Y-46647895D01*
X66809523Y-46647895D02*
X66809523Y-46743133D01*
X66809523Y-46743133D02*
X66761904Y-46885990D01*
X66761904Y-46885990D02*
X66190476Y-47457419D01*
X66190476Y-47457419D02*
X66809523Y-47457419D01*
D10*
X59604819Y-81333333D02*
X60319104Y-81333333D01*
X60319104Y-81333333D02*
X60461961Y-81380952D01*
X60461961Y-81380952D02*
X60557200Y-81476190D01*
X60557200Y-81476190D02*
X60604819Y-81619047D01*
X60604819Y-81619047D02*
X60604819Y-81714285D01*
X59700057Y-80904761D02*
X59652438Y-80857142D01*
X59652438Y-80857142D02*
X59604819Y-80761904D01*
X59604819Y-80761904D02*
X59604819Y-80523809D01*
X59604819Y-80523809D02*
X59652438Y-80428571D01*
X59652438Y-80428571D02*
X59700057Y-80380952D01*
X59700057Y-80380952D02*
X59795295Y-80333333D01*
X59795295Y-80333333D02*
X59890533Y-80333333D01*
X59890533Y-80333333D02*
X60033390Y-80380952D01*
X60033390Y-80380952D02*
X60604819Y-80952380D01*
X60604819Y-80952380D02*
X60604819Y-80333333D01*
X87583333Y-89439580D02*
X87535714Y-89487200D01*
X87535714Y-89487200D02*
X87392857Y-89534819D01*
X87392857Y-89534819D02*
X87297619Y-89534819D01*
X87297619Y-89534819D02*
X87154762Y-89487200D01*
X87154762Y-89487200D02*
X87059524Y-89391961D01*
X87059524Y-89391961D02*
X87011905Y-89296723D01*
X87011905Y-89296723D02*
X86964286Y-89106247D01*
X86964286Y-89106247D02*
X86964286Y-88963390D01*
X86964286Y-88963390D02*
X87011905Y-88772914D01*
X87011905Y-88772914D02*
X87059524Y-88677676D01*
X87059524Y-88677676D02*
X87154762Y-88582438D01*
X87154762Y-88582438D02*
X87297619Y-88534819D01*
X87297619Y-88534819D02*
X87392857Y-88534819D01*
X87392857Y-88534819D02*
X87535714Y-88582438D01*
X87535714Y-88582438D02*
X87583333Y-88630057D01*
X87964286Y-88630057D02*
X88011905Y-88582438D01*
X88011905Y-88582438D02*
X88107143Y-88534819D01*
X88107143Y-88534819D02*
X88345238Y-88534819D01*
X88345238Y-88534819D02*
X88440476Y-88582438D01*
X88440476Y-88582438D02*
X88488095Y-88630057D01*
X88488095Y-88630057D02*
X88535714Y-88725295D01*
X88535714Y-88725295D02*
X88535714Y-88820533D01*
X88535714Y-88820533D02*
X88488095Y-88963390D01*
X88488095Y-88963390D02*
X87916667Y-89534819D01*
X87916667Y-89534819D02*
X88535714Y-89534819D01*
X90407200Y-73833332D02*
X90454819Y-73690475D01*
X90454819Y-73690475D02*
X90454819Y-73452380D01*
X90454819Y-73452380D02*
X90407200Y-73357142D01*
X90407200Y-73357142D02*
X90359580Y-73309523D01*
X90359580Y-73309523D02*
X90264342Y-73261904D01*
X90264342Y-73261904D02*
X90169104Y-73261904D01*
X90169104Y-73261904D02*
X90073866Y-73309523D01*
X90073866Y-73309523D02*
X90026247Y-73357142D01*
X90026247Y-73357142D02*
X89978628Y-73452380D01*
X89978628Y-73452380D02*
X89931009Y-73642856D01*
X89931009Y-73642856D02*
X89883390Y-73738094D01*
X89883390Y-73738094D02*
X89835771Y-73785713D01*
X89835771Y-73785713D02*
X89740533Y-73833332D01*
X89740533Y-73833332D02*
X89645295Y-73833332D01*
X89645295Y-73833332D02*
X89550057Y-73785713D01*
X89550057Y-73785713D02*
X89502438Y-73738094D01*
X89502438Y-73738094D02*
X89454819Y-73642856D01*
X89454819Y-73642856D02*
X89454819Y-73404761D01*
X89454819Y-73404761D02*
X89502438Y-73261904D01*
X89454819Y-72928570D02*
X90454819Y-72690475D01*
X90454819Y-72690475D02*
X89740533Y-72499999D01*
X89740533Y-72499999D02*
X90454819Y-72309523D01*
X90454819Y-72309523D02*
X89454819Y-72071428D01*
X89550057Y-71738094D02*
X89502438Y-71690475D01*
X89502438Y-71690475D02*
X89454819Y-71595237D01*
X89454819Y-71595237D02*
X89454819Y-71357142D01*
X89454819Y-71357142D02*
X89502438Y-71261904D01*
X89502438Y-71261904D02*
X89550057Y-71214285D01*
X89550057Y-71214285D02*
X89645295Y-71166666D01*
X89645295Y-71166666D02*
X89740533Y-71166666D01*
X89740533Y-71166666D02*
X89883390Y-71214285D01*
X89883390Y-71214285D02*
X90454819Y-71785713D01*
X90454819Y-71785713D02*
X90454819Y-71166666D01*
X84054819Y-56833333D02*
X84769104Y-56833333D01*
X84769104Y-56833333D02*
X84911961Y-56880952D01*
X84911961Y-56880952D02*
X85007200Y-56976190D01*
X85007200Y-56976190D02*
X85054819Y-57119047D01*
X85054819Y-57119047D02*
X85054819Y-57214285D01*
X84054819Y-55880952D02*
X84054819Y-56357142D01*
X84054819Y-56357142D02*
X84531009Y-56404761D01*
X84531009Y-56404761D02*
X84483390Y-56357142D01*
X84483390Y-56357142D02*
X84435771Y-56261904D01*
X84435771Y-56261904D02*
X84435771Y-56023809D01*
X84435771Y-56023809D02*
X84483390Y-55928571D01*
X84483390Y-55928571D02*
X84531009Y-55880952D01*
X84531009Y-55880952D02*
X84626247Y-55833333D01*
X84626247Y-55833333D02*
X84864342Y-55833333D01*
X84864342Y-55833333D02*
X84959580Y-55880952D01*
X84959580Y-55880952D02*
X85007200Y-55928571D01*
X85007200Y-55928571D02*
X85054819Y-56023809D01*
X85054819Y-56023809D02*
X85054819Y-56261904D01*
X85054819Y-56261904D02*
X85007200Y-56357142D01*
X85007200Y-56357142D02*
X84959580Y-56404761D01*
X86333333Y-91954819D02*
X86000000Y-91478628D01*
X85761905Y-91954819D02*
X85761905Y-90954819D01*
X85761905Y-90954819D02*
X86142857Y-90954819D01*
X86142857Y-90954819D02*
X86238095Y-91002438D01*
X86238095Y-91002438D02*
X86285714Y-91050057D01*
X86285714Y-91050057D02*
X86333333Y-91145295D01*
X86333333Y-91145295D02*
X86333333Y-91288152D01*
X86333333Y-91288152D02*
X86285714Y-91383390D01*
X86285714Y-91383390D02*
X86238095Y-91431009D01*
X86238095Y-91431009D02*
X86142857Y-91478628D01*
X86142857Y-91478628D02*
X85761905Y-91478628D01*
X86714286Y-91050057D02*
X86761905Y-91002438D01*
X86761905Y-91002438D02*
X86857143Y-90954819D01*
X86857143Y-90954819D02*
X87095238Y-90954819D01*
X87095238Y-90954819D02*
X87190476Y-91002438D01*
X87190476Y-91002438D02*
X87238095Y-91050057D01*
X87238095Y-91050057D02*
X87285714Y-91145295D01*
X87285714Y-91145295D02*
X87285714Y-91240533D01*
X87285714Y-91240533D02*
X87238095Y-91383390D01*
X87238095Y-91383390D02*
X86666667Y-91954819D01*
X86666667Y-91954819D02*
X87285714Y-91954819D01*
X82904761Y-88800057D02*
X82809523Y-88752438D01*
X82809523Y-88752438D02*
X82714285Y-88657200D01*
X82714285Y-88657200D02*
X82571428Y-88514342D01*
X82571428Y-88514342D02*
X82476190Y-88466723D01*
X82476190Y-88466723D02*
X82380952Y-88466723D01*
X82428571Y-88704819D02*
X82333333Y-88657200D01*
X82333333Y-88657200D02*
X82238095Y-88561961D01*
X82238095Y-88561961D02*
X82190476Y-88371485D01*
X82190476Y-88371485D02*
X82190476Y-88038152D01*
X82190476Y-88038152D02*
X82238095Y-87847676D01*
X82238095Y-87847676D02*
X82333333Y-87752438D01*
X82333333Y-87752438D02*
X82428571Y-87704819D01*
X82428571Y-87704819D02*
X82619047Y-87704819D01*
X82619047Y-87704819D02*
X82714285Y-87752438D01*
X82714285Y-87752438D02*
X82809523Y-87847676D01*
X82809523Y-87847676D02*
X82857142Y-88038152D01*
X82857142Y-88038152D02*
X82857142Y-88371485D01*
X82857142Y-88371485D02*
X82809523Y-88561961D01*
X82809523Y-88561961D02*
X82714285Y-88657200D01*
X82714285Y-88657200D02*
X82619047Y-88704819D01*
X82619047Y-88704819D02*
X82428571Y-88704819D01*
X83238095Y-87800057D02*
X83285714Y-87752438D01*
X83285714Y-87752438D02*
X83380952Y-87704819D01*
X83380952Y-87704819D02*
X83619047Y-87704819D01*
X83619047Y-87704819D02*
X83714285Y-87752438D01*
X83714285Y-87752438D02*
X83761904Y-87800057D01*
X83761904Y-87800057D02*
X83809523Y-87895295D01*
X83809523Y-87895295D02*
X83809523Y-87990533D01*
X83809523Y-87990533D02*
X83761904Y-88133390D01*
X83761904Y-88133390D02*
X83190476Y-88704819D01*
X83190476Y-88704819D02*
X83809523Y-88704819D01*
D12*
%TO.C,J3*%
X78390000Y-58610000D02*
X78390000Y-59860000D01*
X78390000Y-59860000D02*
X79640000Y-59860000D01*
X78490000Y-57800000D02*
X78490000Y-58100000D01*
X78490000Y-58100000D02*
X78690000Y-58100000D01*
X78590000Y-57800000D02*
X78590000Y-58100000D01*
X78690000Y-53440000D02*
X78690000Y-59560000D01*
X78690000Y-57000000D02*
X79300000Y-57000000D01*
X78690000Y-57800000D02*
X78490000Y-57800000D01*
X78690000Y-59560000D02*
X83410000Y-59560000D01*
X79300000Y-54050000D02*
X79300000Y-56000000D01*
X79300000Y-56000000D02*
X78690000Y-56000000D01*
X79300000Y-57000000D02*
X79300000Y-58950000D01*
X79300000Y-58950000D02*
X82800000Y-58950000D01*
X80000000Y-53440000D02*
X80000000Y-54050000D01*
X80000000Y-59560000D02*
X80000000Y-58950000D01*
X81300000Y-53440000D02*
X81300000Y-54050000D01*
X81300000Y-59560000D02*
X81300000Y-58950000D01*
X82300000Y-56400000D02*
X82800000Y-56400000D01*
X82300000Y-56600000D02*
X82300000Y-56400000D01*
X82800000Y-54050000D02*
X79300000Y-54050000D01*
X82800000Y-56500000D02*
X82300000Y-56500000D01*
X82800000Y-56600000D02*
X82300000Y-56600000D01*
X82800000Y-58950000D02*
X82800000Y-54050000D01*
X83410000Y-53440000D02*
X78690000Y-53440000D01*
X83410000Y-59560000D02*
X83410000Y-53440000D01*
%TO.C,SW3*%
X60400000Y-65100000D02*
X64500000Y-65100000D01*
X60400000Y-76900000D02*
X60400000Y-65100000D01*
X64500000Y-65100000D02*
X64500000Y-76900000D01*
X64500000Y-76900000D02*
X60400000Y-76900000D01*
X69500000Y-71000000D02*
G75*
G02*
X63500000Y-71000000I-3000000J0D01*
G01*
X63500000Y-71000000D02*
G75*
G02*
X69500000Y-71000000I3000000J0D01*
G01*
%TO.C,U2*%
X57000000Y-42104000D02*
X57000000Y-60764000D01*
X57000000Y-42104000D02*
X58330000Y-42104000D01*
X57000000Y-60764000D02*
X59660000Y-60764000D01*
D11*
X57059999Y-59566999D02*
X57059999Y-42421999D01*
D13*
X57060000Y-59563000D02*
X57060000Y-42418000D01*
D12*
X58330000Y-42104000D02*
X59660000Y-42104000D01*
D11*
X58964999Y-61471999D02*
X72934999Y-61471999D01*
D13*
X58965000Y-61468000D02*
X72935000Y-61468000D01*
D12*
X59660000Y-42104000D02*
X59660000Y-60764000D01*
X72240000Y-42104000D02*
X72240000Y-60764000D01*
X72240000Y-42104000D02*
X73570000Y-42104000D01*
X72240000Y-60764000D02*
X74900000Y-60764000D01*
D11*
X72934999Y-40516999D02*
X58964999Y-40516999D01*
X72935000Y-40513000D02*
X58965000Y-40513000D01*
D13*
X72935000Y-40513000D02*
X58965000Y-40513000D01*
D12*
X73570000Y-42104000D02*
X74900000Y-42104000D01*
D11*
X74839999Y-59566999D02*
X74839999Y-42421999D01*
D12*
X74900000Y-42104000D02*
X74900000Y-60764000D01*
D11*
X57059999Y-42417999D02*
G75*
G02*
X58964999Y-40512999I1905001J-1D01*
G01*
D13*
X57060000Y-42418000D02*
G75*
G02*
X58965000Y-40513000I1905001J-1D01*
G01*
D11*
X58964999Y-61471999D02*
G75*
G02*
X57059999Y-59566999I1J1905001D01*
G01*
D13*
X58965000Y-61468000D02*
G75*
G02*
X57060000Y-59563000I1J1905001D01*
G01*
D11*
X72934999Y-40516999D02*
G75*
G02*
X74840001Y-42421999I1J-1905001D01*
G01*
D13*
X72935000Y-40513000D02*
G75*
G02*
X74840000Y-42418000I0J-1905000D01*
G01*
D11*
X74839999Y-59566999D02*
G75*
G02*
X72934999Y-61471999I-1904999J-1D01*
G01*
D13*
X74840000Y-59563000D02*
G75*
G02*
X72935000Y-61468000I-1905000J0D01*
G01*
D14*
X57252000Y-40754000D02*
G75*
G02*
X56748000Y-40754000I-252000J0D01*
G01*
X56748000Y-40754000D02*
G75*
G02*
X57252000Y-40754000I252000J0D01*
G01*
X58395000Y-41634000D02*
G75*
G02*
X57891000Y-41634000I-252000J0D01*
G01*
X57891000Y-41634000D02*
G75*
G02*
X58395000Y-41634000I252000J0D01*
G01*
D12*
X65468599Y-56585699D02*
G75*
G02*
X62868599Y-56585699I-1300000J0D01*
G01*
X62868599Y-56585699D02*
G75*
G02*
X65468599Y-56585699I1300000J0D01*
G01*
X68008599Y-56585699D02*
G75*
G02*
X65408599Y-56585699I-1300000J0D01*
G01*
X65408599Y-56585699D02*
G75*
G02*
X68008599Y-56585699I1300000J0D01*
G01*
%TO.C,J2*%
X61590000Y-79670000D02*
X62920000Y-79670000D01*
X61590000Y-81000000D02*
X61590000Y-79670000D01*
X64190000Y-79670000D02*
X71870000Y-79670000D01*
X64190000Y-82330000D02*
X64190000Y-79670000D01*
X64190000Y-82330000D02*
X71870000Y-82330000D01*
X71870000Y-82330000D02*
X71870000Y-79670000D01*
%TO.C,C2*%
X85040000Y-91500000D02*
X85730000Y-91500000D01*
X90460000Y-91500000D02*
X89770000Y-91500000D01*
X85730000Y-90080000D02*
X89770000Y-90080000D01*
X89770000Y-92920000D01*
X85730000Y-92920000D01*
X85730000Y-90080000D01*
%TO.C,SW2*%
X88000000Y-60500000D02*
X88000000Y-70500000D01*
X92000000Y-60500000D02*
X88000000Y-60500000D01*
X92000000Y-60500000D02*
X92000000Y-70500000D01*
X92000000Y-70500000D02*
X88000000Y-70500000D01*
%TO.C,J5*%
X85390000Y-58610000D02*
X85390000Y-59860000D01*
X85390000Y-59860000D02*
X86640000Y-59860000D01*
X85490000Y-57800000D02*
X85490000Y-58100000D01*
X85490000Y-58100000D02*
X85690000Y-58100000D01*
X85590000Y-57800000D02*
X85590000Y-58100000D01*
X85690000Y-53440000D02*
X85690000Y-59560000D01*
X85690000Y-57000000D02*
X86300000Y-57000000D01*
X85690000Y-57800000D02*
X85490000Y-57800000D01*
X85690000Y-59560000D02*
X90410000Y-59560000D01*
X86300000Y-54050000D02*
X86300000Y-56000000D01*
X86300000Y-56000000D02*
X85690000Y-56000000D01*
X86300000Y-57000000D02*
X86300000Y-58950000D01*
X86300000Y-58950000D02*
X89800000Y-58950000D01*
X87000000Y-53440000D02*
X87000000Y-54050000D01*
X87000000Y-59560000D02*
X87000000Y-58950000D01*
X88300000Y-53440000D02*
X88300000Y-54050000D01*
X88300000Y-59560000D02*
X88300000Y-58950000D01*
X89300000Y-56400000D02*
X89800000Y-56400000D01*
X89300000Y-56600000D02*
X89300000Y-56400000D01*
X89800000Y-54050000D02*
X86300000Y-54050000D01*
X89800000Y-56500000D02*
X89300000Y-56500000D01*
X89800000Y-56600000D02*
X89300000Y-56600000D01*
X89800000Y-58950000D02*
X89800000Y-54050000D01*
X90410000Y-53440000D02*
X85690000Y-53440000D01*
X90410000Y-59560000D02*
X90410000Y-53440000D01*
%TO.C,Q2*%
X77890000Y-71540000D02*
X77890000Y-87410000D01*
X79975000Y-71540000D02*
X79975000Y-69100000D01*
X80945000Y-71540000D02*
X80945000Y-69100000D01*
X82515000Y-71540000D02*
X82515000Y-69100000D01*
X83485000Y-71540000D02*
X83485000Y-69100000D01*
X85055000Y-71540000D02*
X85055000Y-69100000D01*
X86025000Y-71540000D02*
X86025000Y-69100000D01*
X88110000Y-71540000D02*
X77890000Y-71540000D01*
X88110000Y-71540000D02*
X88110000Y-87410000D01*
X88110000Y-87410000D02*
X77890000Y-87410000D01*
%TD*%
M02*
