%TF.GenerationSoftware,KiCad,Pcbnew,9.0.6*%
%TF.CreationDate,2025-11-12T21:22:32-05:00*%
%TF.ProjectId,ESPAtomizer,45535041-746f-46d6-997a-65722e6b6963,rev?*%
%TF.SameCoordinates,Original*%
%TF.FileFunction,Soldermask,Bot*%
%TF.FilePolarity,Negative*%
%FSLAX46Y46*%
G04 Gerber Fmt 4.6, Leading zero omitted, Abs format (unit mm)*
G04 Created by KiCad (PCBNEW 9.0.6) date 2025-11-12 21:22:32*
%MOMM*%
%LPD*%
G01*
G04 APERTURE LIST*
G04 Aperture macros list*
%AMRoundRect*
0 Rectangle with rounded corners*
0 $1 Rounding radius*
0 $2 $3 $4 $5 $6 $7 $8 $9 X,Y pos of 4 corners*
0 Add a 4 corners polygon primitive as box body*
4,1,4,$2,$3,$4,$5,$6,$7,$8,$9,$2,$3,0*
0 Add four circle primitives for the rounded corners*
1,1,$1+$1,$2,$3*
1,1,$1+$1,$4,$5*
1,1,$1+$1,$6,$7*
1,1,$1+$1,$8,$9*
0 Add four rect primitives between the rounded corners*
20,1,$1+$1,$2,$3,$4,$5,0*
20,1,$1+$1,$4,$5,$6,$7,0*
20,1,$1+$1,$6,$7,$8,$9,0*
20,1,$1+$1,$8,$9,$2,$3,0*%
G04 Aperture macros list end*
%ADD10C,1.600000*%
%ADD11RoundRect,0.250000X0.625000X-0.350000X0.625000X0.350000X-0.625000X0.350000X-0.625000X-0.350000X0*%
%ADD12O,1.750000X1.200000*%
%ADD13R,2.000000X2.000000*%
%ADD14C,2.000000*%
%ADD15R,3.200000X2.000000*%
%ADD16R,1.700000X1.700000*%
%ADD17C,1.524000*%
%ADD18O,1.700000X1.700000*%
%ADD19C,2.200000*%
%ADD20C,1.700000*%
%ADD21C,1.800000*%
%ADD22C,3.500000*%
%ADD23R,1.905000X2.000000*%
%ADD24O,1.905000X2.000000*%
G04 APERTURE END LIST*
D10*
%TO.C,R4*%
X64880000Y-85500000D03*
X72500000Y-85500000D03*
%TD*%
%TO.C,R3*%
X83880000Y-100000000D03*
X91500000Y-100000000D03*
%TD*%
D11*
%TO.C,J3*%
X80500000Y-57500000D03*
D12*
X80500000Y-55500000D03*
%TD*%
D13*
%TO.C,SW3*%
X59000000Y-68500000D03*
D14*
X59000000Y-73500000D03*
X59000000Y-71000000D03*
D15*
X66500000Y-65400000D03*
X66500000Y-76600000D03*
D14*
X73500000Y-73500000D03*
X73500000Y-68500000D03*
%TD*%
D10*
%TO.C,R5*%
X64880000Y-89550000D03*
X72500000Y-89550000D03*
%TD*%
D16*
%TO.C,U2*%
X58330000Y-43434000D03*
D17*
X58330000Y-45974000D03*
X58330000Y-48514000D03*
X58330000Y-51054000D03*
X58330000Y-53594000D03*
X58330000Y-56134000D03*
X58330000Y-58674000D03*
D18*
X73570000Y-58674000D03*
X73570000Y-56134000D03*
X73570000Y-53594000D03*
X73570000Y-51054000D03*
X73570000Y-48514000D03*
X73570000Y-45974000D03*
D16*
X73570000Y-43434000D03*
D19*
X64168599Y-56585699D03*
X66708599Y-56585699D03*
%TD*%
D16*
%TO.C,J2*%
X62920000Y-81000000D03*
D20*
X65460000Y-81000000D03*
X68000000Y-81000000D03*
X70540000Y-81000000D03*
%TD*%
D10*
%TO.C,C2*%
X84000000Y-91500000D03*
X91500000Y-91500000D03*
%TD*%
D21*
%TO.C,SW2*%
X90000000Y-63000000D03*
X90000000Y-68000000D03*
%TD*%
D11*
%TO.C,J5*%
X87500000Y-57500000D03*
D12*
X87500000Y-55500000D03*
%TD*%
D10*
%TO.C,R2*%
X83830000Y-95750000D03*
X91450000Y-95750000D03*
%TD*%
D22*
%TO.C,Q2*%
X83000000Y-84500000D03*
D23*
X85540000Y-67840000D03*
D24*
X83000000Y-67840000D03*
X80460000Y-67840000D03*
%TD*%
D16*
%TO.C,J4*%
X79380000Y-43000000D03*
D20*
X81920000Y-43000000D03*
X84460000Y-43000000D03*
X87000000Y-43000000D03*
X89540000Y-43000000D03*
%TD*%
M02*
