%TF.GenerationSoftware,KiCad,Pcbnew,9.0.6*%
%TF.CreationDate,2025-11-12T21:22:31-05:00*%
%TF.ProjectId,ESPAtomizer,45535041-746f-46d6-997a-65722e6b6963,rev?*%
%TF.SameCoordinates,Original*%
%TF.FileFunction,Copper,L2,Bot*%
%TF.FilePolarity,Positive*%
%FSLAX46Y46*%
G04 Gerber Fmt 4.6, Leading zero omitted, Abs format (unit mm)*
G04 Created by KiCad (PCBNEW 9.0.6) date 2025-11-12 21:22:31*
%MOMM*%
%LPD*%
G01*
G04 APERTURE LIST*
G04 Aperture macros list*
%AMRoundRect*
0 Rectangle with rounded corners*
0 $1 Rounding radius*
0 $2 $3 $4 $5 $6 $7 $8 $9 X,Y pos of 4 corners*
0 Add a 4 corners polygon primitive as box body*
4,1,4,$2,$3,$4,$5,$6,$7,$8,$9,$2,$3,0*
0 Add four circle primitives for the rounded corners*
1,1,$1+$1,$2,$3*
1,1,$1+$1,$4,$5*
1,1,$1+$1,$6,$7*
1,1,$1+$1,$8,$9*
0 Add four rect primitives between the rounded corners*
20,1,$1+$1,$2,$3,$4,$5,0*
20,1,$1+$1,$4,$5,$6,$7,0*
20,1,$1+$1,$6,$7,$8,$9,0*
20,1,$1+$1,$8,$9,$2,$3,0*%
G04 Aperture macros list end*
%TA.AperFunction,ComponentPad*%
%ADD10C,1.600000*%
%TD*%
%TA.AperFunction,ComponentPad*%
%ADD11RoundRect,0.250000X0.625000X-0.350000X0.625000X0.350000X-0.625000X0.350000X-0.625000X-0.350000X0*%
%TD*%
%TA.AperFunction,ComponentPad*%
%ADD12O,1.750000X1.200000*%
%TD*%
%TA.AperFunction,ComponentPad*%
%ADD13R,2.000000X2.000000*%
%TD*%
%TA.AperFunction,ComponentPad*%
%ADD14C,2.000000*%
%TD*%
%TA.AperFunction,ComponentPad*%
%ADD15R,3.200000X2.000000*%
%TD*%
%TA.AperFunction,ComponentPad*%
%ADD16R,1.700000X1.700000*%
%TD*%
%TA.AperFunction,ComponentPad*%
%ADD17C,1.524000*%
%TD*%
%TA.AperFunction,ComponentPad*%
%ADD18O,1.700000X1.700000*%
%TD*%
%TA.AperFunction,ComponentPad*%
%ADD19C,2.200000*%
%TD*%
%TA.AperFunction,ComponentPad*%
%ADD20C,1.700000*%
%TD*%
%TA.AperFunction,ComponentPad*%
%ADD21C,1.800000*%
%TD*%
%TA.AperFunction,ComponentPad*%
%ADD22R,1.905000X2.000000*%
%TD*%
%TA.AperFunction,ComponentPad*%
%ADD23O,1.905000X2.000000*%
%TD*%
%TA.AperFunction,ViaPad*%
%ADD24C,1.000000*%
%TD*%
%TA.AperFunction,ViaPad*%
%ADD25C,0.600000*%
%TD*%
%TA.AperFunction,Conductor*%
%ADD26C,2.000000*%
%TD*%
%TA.AperFunction,Conductor*%
%ADD27C,0.200000*%
%TD*%
G04 APERTURE END LIST*
D10*
%TO.P,R4,1*%
%TO.N,/G*%
X64880000Y-85500000D03*
%TO.P,R4,2*%
%TO.N,GND*%
X72500000Y-85500000D03*
%TD*%
%TO.P,R3,1*%
%TO.N,/BAT_ADC*%
X83880000Y-100000000D03*
%TO.P,R3,2*%
%TO.N,/BAT+*%
X91500000Y-100000000D03*
%TD*%
D11*
%TO.P,J3,1,Pin_1*%
%TO.N,GND*%
X80500000Y-57500000D03*
D12*
%TO.P,J3,2,Pin_2*%
%TO.N,Net-(J3-Pin_2)*%
X80500000Y-55500000D03*
%TD*%
D13*
%TO.P,SW3,A,A*%
%TO.N,/ENC_A*%
X59000000Y-68500000D03*
D14*
%TO.P,SW3,B,B*%
%TO.N,GND*%
X59000000Y-73500000D03*
%TO.P,SW3,C,C*%
%TO.N,/ENC_B*%
X59000000Y-71000000D03*
D15*
%TO.P,SW3,MP*%
%TO.N,N/C*%
X66500000Y-65400000D03*
X66500000Y-76600000D03*
D14*
%TO.P,SW3,S1,S1*%
%TO.N,/ENC_SW*%
X73500000Y-73500000D03*
%TO.P,SW3,S2,S2*%
%TO.N,GND*%
X73500000Y-68500000D03*
%TD*%
D10*
%TO.P,R5,1*%
%TO.N,/MOSFET_GATE*%
X64880000Y-89550000D03*
%TO.P,R5,2*%
%TO.N,/G*%
X72500000Y-89550000D03*
%TD*%
D16*
%TO.P,U2,1,GPIO0_A0_D0*%
%TO.N,/MOSFET_GATE*%
X58330000Y-43434000D03*
D17*
%TO.P,U2,2,GPIO1_A1_D1*%
%TO.N,/SCL*%
X58330000Y-45974000D03*
%TO.P,U2,3,GPIO2_A2_D2*%
%TO.N,/SDA*%
X58330000Y-48514000D03*
%TO.P,U2,4,GPIO21_D3*%
%TO.N,/BAT_ADC*%
X58330000Y-51054000D03*
%TO.P,U2,5,GPIO22_D4_SDA*%
%TO.N,/ENC_SW*%
X58330000Y-53594000D03*
%TO.P,U2,6,GPIO23_D5_SCL*%
%TO.N,/ENC_B*%
X58330000Y-56134000D03*
%TO.P,U2,7,GPIO16_D6_TX*%
%TO.N,/ENC_A*%
X58330000Y-58674000D03*
D18*
%TO.P,U2,8,GPIO17_D7_RX*%
%TO.N,unconnected-(U2-GPIO17_D7_RX-Pad8)*%
X73570000Y-58674000D03*
%TO.P,U2,9,GPIO19_D8_SCK*%
%TO.N,/MAX_SO*%
X73570000Y-56134000D03*
%TO.P,U2,10,GPIO20_D9_MISO*%
%TO.N,/MAX_CS*%
X73570000Y-53594000D03*
%TO.P,U2,11,GPIO18_D10_MOSI*%
%TO.N,/MAX_SCK*%
X73570000Y-51054000D03*
%TO.P,U2,12,3V3*%
%TO.N,/VCC*%
X73570000Y-48514000D03*
%TO.P,U2,13,GND*%
%TO.N,GND*%
X73570000Y-45974000D03*
D16*
%TO.P,U2,14,VBUS*%
%TO.N,unconnected-(U2-VBUS-Pad14)*%
X73570000Y-43434000D03*
D19*
%TO.P,U2,32,BAT*%
%TO.N,/BAT+*%
X64168599Y-56585699D03*
%TO.P,U2,33,GND*%
%TO.N,GND*%
X66708599Y-56585699D03*
%TD*%
D16*
%TO.P,J2,1,Pin_1*%
%TO.N,/VCC*%
X62920000Y-81000000D03*
D20*
%TO.P,J2,2,Pin_2*%
%TO.N,GND*%
X65460000Y-81000000D03*
%TO.P,J2,3,Pin_3*%
%TO.N,/SDA*%
X68000000Y-81000000D03*
%TO.P,J2,4,Pin_4*%
%TO.N,/SCL*%
X70540000Y-81000000D03*
%TD*%
D10*
%TO.P,C2,1*%
%TO.N,GND*%
X84000000Y-91500000D03*
%TO.P,C2,2*%
%TO.N,/BAT_ADC*%
X91500000Y-91500000D03*
%TD*%
D21*
%TO.P,SW2,1,A*%
%TO.N,/BAT+*%
X90000000Y-63000000D03*
%TO.P,SW2,2,B*%
%TO.N,Net-(J3-Pin_2)*%
X90000000Y-68000000D03*
%TD*%
D11*
%TO.P,J5,1,Pin_1*%
%TO.N,/BAT+*%
X87500000Y-57500000D03*
D12*
%TO.P,J5,2,Pin_2*%
%TO.N,/D*%
X87500000Y-55500000D03*
%TD*%
D10*
%TO.P,R2,1*%
%TO.N,GND*%
X83830000Y-95750000D03*
%TO.P,R2,2*%
%TO.N,/BAT_ADC*%
X91450000Y-95750000D03*
%TD*%
D22*
%TO.P,Q2,1,G*%
%TO.N,/G*%
X85540000Y-67840000D03*
D23*
%TO.P,Q2,2,D*%
%TO.N,GND*%
X83000000Y-67840000D03*
%TO.P,Q2,3,S*%
%TO.N,/D*%
X80460000Y-67840000D03*
%TD*%
D16*
%TO.P,J4,1,Pin_1*%
%TO.N,/VCC*%
X79380000Y-43000000D03*
D20*
%TO.P,J4,2,Pin_2*%
%TO.N,GND*%
X81920000Y-43000000D03*
%TO.P,J4,3,Pin_3*%
%TO.N,/MAX_SCK*%
X84460000Y-43000000D03*
%TO.P,J4,4,Pin_4*%
%TO.N,/MAX_CS*%
X87000000Y-43000000D03*
%TO.P,J4,5,Pin_5*%
%TO.N,/MAX_SO*%
X89540000Y-43000000D03*
%TD*%
D24*
%TO.N,GND*%
X77275000Y-60725000D03*
D25*
%TO.N,/SCL*%
X61539389Y-82705328D03*
X56866000Y-83093050D03*
%TO.N,/ENC_SW*%
X70000000Y-71000000D03*
X61000000Y-71000000D03*
%TD*%
D26*
%TO.N,GND*%
X77275000Y-60725000D02*
X80500000Y-57500000D01*
D27*
X84000000Y-91500000D02*
X84000000Y-95580000D01*
D26*
X70847900Y-60725000D02*
X77275000Y-60725000D01*
X66708599Y-56585699D02*
X70847900Y-60725000D01*
D27*
X73500000Y-68500000D02*
X68500000Y-73500000D01*
X84000000Y-95580000D02*
X83830000Y-95750000D01*
X65460000Y-79960000D02*
X65460000Y-81000000D01*
X73570000Y-45974000D02*
X66708599Y-52835401D01*
X65460000Y-81000000D02*
X69960000Y-85500000D01*
X69960000Y-85500000D02*
X72500000Y-85500000D01*
X78000000Y-85500000D02*
X84000000Y-91500000D01*
X73570000Y-45974000D02*
X78946000Y-45974000D01*
X78946000Y-45974000D02*
X81920000Y-43000000D01*
X72500000Y-85500000D02*
X78000000Y-85500000D01*
X66708599Y-52835401D02*
X66708599Y-56585699D01*
X59000000Y-73500000D02*
X65460000Y-79960000D01*
X68500000Y-73500000D02*
X59000000Y-73500000D01*
%TO.N,/SCL*%
X61539389Y-82705328D02*
X57253722Y-82705328D01*
X57253722Y-82705328D02*
X56866000Y-83093050D01*
D26*
%TO.N,/BAT+*%
X68953266Y-62926000D02*
X82074000Y-62926000D01*
X64168599Y-58141333D02*
X68953266Y-62926000D01*
X87500000Y-60500000D02*
X90000000Y-63000000D01*
X64168599Y-56585699D02*
X64168599Y-58141333D01*
X87500000Y-57500000D02*
X87500000Y-60500000D01*
X82074000Y-62926000D02*
X87500000Y-57500000D01*
%TO.N,Net-(J3-Pin_2)*%
X92201000Y-65799000D02*
X92201000Y-57379001D01*
X90000000Y-68000000D02*
X92201000Y-65799000D01*
X88520999Y-53699000D02*
X82100000Y-53699000D01*
X92201000Y-57379001D02*
X88520999Y-53699000D01*
X82100000Y-53699000D02*
X80500000Y-55299000D01*
D27*
%TO.N,/BAT_ADC*%
X91450000Y-95750000D02*
X91450000Y-95050000D01*
X91500000Y-95000000D02*
X91500000Y-91500000D01*
X59393000Y-52117000D02*
X58330000Y-51054000D01*
X91500000Y-84660108D02*
X71066892Y-64227000D01*
X83880000Y-100000000D02*
X87200000Y-100000000D01*
X91450000Y-95050000D02*
X91500000Y-95000000D01*
X87200000Y-100000000D02*
X91450000Y-95750000D01*
X59393000Y-55205626D02*
X59393000Y-52117000D01*
X91500000Y-91500000D02*
X91500000Y-84660108D01*
X71066892Y-64227000D02*
X68414374Y-64227000D01*
X68414374Y-64227000D02*
X59393000Y-55205626D01*
%TO.N,/ENC_SW*%
X61000000Y-71000000D02*
X70000000Y-71000000D01*
%TO.N,/ENC_A*%
X59000000Y-68500000D02*
X59000000Y-59344000D01*
X59000000Y-59344000D02*
X58330000Y-58674000D01*
%TO.N,/ENC_B*%
X57267000Y-57197000D02*
X58330000Y-56134000D01*
X57267000Y-69267000D02*
X57267000Y-57197000D01*
X59000000Y-71000000D02*
X57267000Y-69267000D01*
%TD*%
M02*
