%TF.GenerationSoftware,KiCad,Pcbnew,9.0.6*%
%TF.CreationDate,2025-12-28T14:18:18-05:00*%
%TF.ProjectId,EspAtomizer-PCB_v3,45737041-746f-46d6-997a-65722d504342,rev?*%
%TF.SameCoordinates,Original*%
%TF.FileFunction,Copper,L1,Top*%
%TF.FilePolarity,Positive*%
%FSLAX46Y46*%
G04 Gerber Fmt 4.6, Leading zero omitted, Abs format (unit mm)*
G04 Created by KiCad (PCBNEW 9.0.6) date 2025-12-28 14:18:18*
%MOMM*%
%LPD*%
G01*
G04 APERTURE LIST*
G04 Aperture macros list*
%AMRoundRect*
0 Rectangle with rounded corners*
0 $1 Rounding radius*
0 $2 $3 $4 $5 $6 $7 $8 $9 X,Y pos of 4 corners*
0 Add a 4 corners polygon primitive as box body*
4,1,4,$2,$3,$4,$5,$6,$7,$8,$9,$2,$3,0*
0 Add four circle primitives for the rounded corners*
1,1,$1+$1,$2,$3*
1,1,$1+$1,$4,$5*
1,1,$1+$1,$6,$7*
1,1,$1+$1,$8,$9*
0 Add four rect primitives between the rounded corners*
20,1,$1+$1,$2,$3,$4,$5,0*
20,1,$1+$1,$4,$5,$6,$7,0*
20,1,$1+$1,$6,$7,$8,$9,0*
20,1,$1+$1,$8,$9,$2,$3,0*%
%AMFreePoly0*
4,1,9,2.975000,-2.350000,1.425000,-2.350000,1.425000,-2.100000,-1.650000,-2.100000,-1.650000,2.100000,1.425000,2.100000,1.425000,2.350000,2.975000,2.350000,2.975000,-2.350000,2.975000,-2.350000,$1*%
G04 Aperture macros list end*
%TA.AperFunction,ComponentPad*%
%ADD10RoundRect,0.250000X-0.350000X-0.625000X0.350000X-0.625000X0.350000X0.625000X-0.350000X0.625000X0*%
%TD*%
%TA.AperFunction,ComponentPad*%
%ADD11O,1.200000X1.750000*%
%TD*%
%TA.AperFunction,SMDPad,CuDef*%
%ADD12R,1.200000X2.500000*%
%TD*%
%TA.AperFunction,ComponentPad*%
%ADD13RoundRect,0.250000X0.625000X-0.350000X0.625000X0.350000X-0.625000X0.350000X-0.625000X-0.350000X0*%
%TD*%
%TA.AperFunction,ComponentPad*%
%ADD14O,1.750000X1.200000*%
%TD*%
%TA.AperFunction,SMDPad,CuDef*%
%ADD15RoundRect,0.250000X-0.475000X0.337500X-0.475000X-0.337500X0.475000X-0.337500X0.475000X0.337500X0*%
%TD*%
%TA.AperFunction,SMDPad,CuDef*%
%ADD16RoundRect,0.175000X-0.175000X-0.400000X0.175000X-0.400000X0.175000X0.400000X-0.175000X0.400000X0*%
%TD*%
%TA.AperFunction,SMDPad,CuDef*%
%ADD17FreePoly0,90.000000*%
%TD*%
%TA.AperFunction,ComponentPad*%
%ADD18R,2.000000X2.000000*%
%TD*%
%TA.AperFunction,ComponentPad*%
%ADD19C,2.000000*%
%TD*%
%TA.AperFunction,ComponentPad*%
%ADD20R,3.200000X2.000000*%
%TD*%
%TA.AperFunction,SMDPad,CuDef*%
%ADD21RoundRect,0.250000X-0.350000X-0.450000X0.350000X-0.450000X0.350000X0.450000X-0.350000X0.450000X0*%
%TD*%
%TA.AperFunction,ComponentPad*%
%ADD22R,1.700000X1.700000*%
%TD*%
%TA.AperFunction,ComponentPad*%
%ADD23C,1.700000*%
%TD*%
%TA.AperFunction,SMDPad,CuDef*%
%ADD24RoundRect,0.250000X0.945000X-0.420000X0.945000X0.420000X-0.945000X0.420000X-0.945000X-0.420000X0*%
%TD*%
%TA.AperFunction,SMDPad,CuDef*%
%ADD25C,1.700000*%
%TD*%
%TA.AperFunction,ComponentPad*%
%ADD26C,2.200000*%
%TD*%
%TA.AperFunction,SMDPad,CuDef*%
%ADD27R,0.700000X0.700000*%
%TD*%
%TA.AperFunction,ViaPad*%
%ADD28C,0.600000*%
%TD*%
%TA.AperFunction,ViaPad*%
%ADD29C,1.000000*%
%TD*%
%TA.AperFunction,ViaPad*%
%ADD30C,0.800000*%
%TD*%
%TA.AperFunction,Conductor*%
%ADD31C,0.200000*%
%TD*%
%TA.AperFunction,Conductor*%
%ADD32C,1.500000*%
%TD*%
G04 APERTURE END LIST*
D10*
%TO.P,J1,1,Pin_1*%
%TO.N,/THK-*%
X156000000Y-76700000D03*
D11*
%TO.P,J1,2,Pin_2*%
%TO.N,/THK+*%
X158000000Y-76700000D03*
%TD*%
D12*
%TO.P,SW1,1*%
%TO.N,Net-(J2-Pin_1)*%
X156100000Y-112500000D03*
%TO.P,SW1,2*%
%TO.N,Net-(D2-A)*%
X158600000Y-112500000D03*
%TO.P,SW1,3*%
%TO.N,N/C*%
X161100000Y-112500000D03*
%TD*%
D13*
%TO.P,J2,1,Pin_1*%
%TO.N,Net-(J2-Pin_1)*%
X160200000Y-106250000D03*
D14*
%TO.P,J2,2,Pin_2*%
%TO.N,/BAT-*%
X160200000Y-104250000D03*
%TD*%
D15*
%TO.P,C2,1*%
%TO.N,Net-(D1-DIN)*%
X137250000Y-91175000D03*
%TO.P,C2,2*%
%TO.N,/LEDA*%
X137250000Y-93250000D03*
%TD*%
D16*
%TO.P,Q1,1,S*%
%TO.N,/BAT-*%
X157190000Y-89870000D03*
%TO.P,Q1,2,S*%
X158460000Y-89870000D03*
%TO.P,Q1,3,S*%
X159740000Y-89870000D03*
%TO.P,Q1,4,G*%
%TO.N,Net-(Q1-G)*%
X161010000Y-89870000D03*
D17*
%TO.P,Q1,5,D*%
%TO.N,/HEAT*%
X159100000Y-86600000D03*
%TD*%
D18*
%TO.P,SW2,A,A*%
%TO.N,/ENC_A*%
X137250000Y-79000000D03*
D19*
%TO.P,SW2,B,B*%
%TO.N,/ENC_B*%
X137250000Y-84000000D03*
%TO.P,SW2,C,C*%
%TO.N,/GND*%
X137250000Y-81500000D03*
D20*
%TO.P,SW2,MP*%
%TO.N,N/C*%
X144750000Y-75900000D03*
X144750000Y-87100000D03*
D19*
%TO.P,SW2,S1,S1*%
%TO.N,/ENC_SW*%
X151750000Y-84000000D03*
%TO.P,SW2,S2,S2*%
%TO.N,/GND*%
X151750000Y-79000000D03*
%TD*%
D13*
%TO.P,J4,1,Pin_1*%
%TO.N,/BAT+*%
X160200000Y-99250000D03*
D14*
%TO.P,J4,2,Pin_2*%
%TO.N,/HEAT*%
X160200000Y-97250000D03*
%TD*%
D21*
%TO.P,R4,1*%
%TO.N,/BAT-*%
X151750000Y-93500000D03*
%TO.P,R4,2*%
%TO.N,Net-(Q1-G)*%
X153750000Y-93500000D03*
%TD*%
D22*
%TO.P,J3,1,Pin_1*%
%TO.N,/GND*%
X140950000Y-90475000D03*
D23*
%TO.P,J3,2,Pin_2*%
%TO.N,/VCC*%
X143490000Y-90475000D03*
%TO.P,J3,3,Pin_3*%
%TO.N,/I2C_SCL*%
X146030000Y-90475000D03*
%TO.P,J3,4,Pin_4*%
%TO.N,/I2C_SDA*%
X148570000Y-90475000D03*
%TD*%
D24*
%TO.P,C5,1*%
%TO.N,/BAT+*%
X156000000Y-102790000D03*
%TO.P,C5,2*%
%TO.N,/BAT-*%
X156000000Y-99710000D03*
%TD*%
D22*
%TO.P,U3,1,GPIO0_A0_D0*%
%TO.N,/BAT_ADC*%
X152367000Y-114313500D03*
D23*
%TO.P,U3,2,GPIO1_A1_D1*%
%TO.N,/ENC_A*%
X152367000Y-111773500D03*
%TO.P,U3,3,GPIO2_A2_D2*%
%TO.N,/ENC_B*%
X152367000Y-109233500D03*
%TO.P,U3,4,GPIO21_D3*%
%TO.N,/ENC_SW*%
X152367000Y-106693500D03*
%TO.P,U3,5,GPIO22_D4_SDA*%
%TO.N,/I2C_SDA*%
X152367000Y-104153500D03*
%TO.P,U3,6,GPIO23_D5_SCL*%
%TO.N,/I2C_SCL*%
X152367000Y-101613500D03*
%TO.P,U3,7,GPIO16_D6_TX*%
%TO.N,/MOSFET_GATE*%
X152367000Y-99073500D03*
%TO.P,U3,8,GPIO17_D7_RX*%
%TO.N,/LEDA*%
X137127000Y-99073500D03*
%TO.P,U3,9,GPIO19_D8_SCK*%
%TO.N,unconnected-(U3-GPIO19_D8_SCK-Pad9)*%
X137127000Y-101613500D03*
%TO.P,U3,10,GPIO20_D9_MISO*%
%TO.N,unconnected-(U3-GPIO20_D9_MISO-Pad10)*%
X137127000Y-104153500D03*
%TO.P,U3,11,GPIO18_D10_MOSI*%
%TO.N,unconnected-(U3-GPIO18_D10_MOSI-Pad11)*%
X137127000Y-106693500D03*
%TO.P,U3,12,3V3*%
%TO.N,/VCC*%
X137127000Y-109233500D03*
%TO.P,U3,13,GND*%
%TO.N,/GND*%
X137127000Y-111773500D03*
%TO.P,U3,14,5V*%
%TO.N,unconnected-(U3-5V-Pad14)*%
X137127000Y-114313500D03*
D25*
%TO.P,U3,24,3V3_1*%
%TO.N,unconnected-(U3-3V3_1-Pad24)*%
X146071400Y-115305000D03*
%TO.P,U3,25*%
%TO.N,N/C*%
X143531400Y-115305000D03*
%TO.P,U3,26*%
X146071400Y-112765000D03*
%TO.P,U3,27*%
X143531400Y-112765000D03*
%TO.P,U3,28*%
X146071400Y-110225000D03*
%TO.P,U3,29*%
X143531400Y-110225000D03*
%TO.P,U3,30*%
X146071400Y-107685000D03*
%TO.P,U3,31*%
X143624000Y-107741800D03*
D26*
%TO.P,U3,32,BAT*%
%TO.N,/BAT+*%
X146559400Y-101127800D03*
%TO.P,U3,33,GND*%
%TO.N,/BAT-*%
X144019400Y-101127800D03*
%TD*%
D21*
%TO.P,R1,1*%
%TO.N,/MOSFET_GATE*%
X151750000Y-91250000D03*
%TO.P,R1,2*%
%TO.N,Net-(Q1-G)*%
X153750000Y-91250000D03*
%TD*%
D27*
%TO.P,D1,1,DOUT*%
%TO.N,unconnected-(D1-DOUT-Pad1)*%
X156165000Y-82050000D03*
%TO.P,D1,2,VSS*%
%TO.N,/GND*%
X156165000Y-80950000D03*
%TO.P,D1,3,DIN*%
%TO.N,Net-(D1-DIN)*%
X154335000Y-80950000D03*
%TO.P,D1,4,VDD*%
%TO.N,/VCC*%
X154335000Y-82050000D03*
%TD*%
D28*
%TO.N,/VCC*%
X142849000Y-106000000D03*
D29*
%TO.N,/HEAT*%
X159100000Y-86600000D03*
D30*
%TO.N,/BAT-*%
X156000000Y-97750000D03*
X158750000Y-91750000D03*
%TO.N,/BAT+*%
X162775000Y-109750000D03*
X156750000Y-109750000D03*
X156750000Y-105500000D03*
%TO.N,Net-(D2-A)*%
X158739519Y-112639518D03*
%TO.N,Net-(J2-Pin_1)*%
X156100000Y-112500000D03*
D28*
%TO.N,/ENC_B*%
X138878000Y-97500000D03*
%TD*%
D31*
%TO.N,/VCC*%
X138278000Y-95687000D02*
X143490000Y-90475000D01*
X137127000Y-109233500D02*
X138278000Y-108082500D01*
X142849000Y-106000000D02*
X140360500Y-106000000D01*
X142500000Y-89485000D02*
X143490000Y-90475000D01*
X140360500Y-106000000D02*
X137127000Y-109233500D01*
X146450000Y-82050000D02*
X142500000Y-86000000D01*
X142500000Y-86000000D02*
X142500000Y-89485000D01*
X154335000Y-82050000D02*
X146450000Y-82050000D01*
X138278000Y-108082500D02*
X138278000Y-95687000D01*
%TO.N,/BAT-*%
X156000000Y-97755337D02*
X156000000Y-97750000D01*
D32*
X158750000Y-90160000D02*
X158460000Y-89870000D01*
X158750000Y-91750000D02*
X158750000Y-91430000D01*
X158750000Y-91430000D02*
X157190000Y-89870000D01*
X156000000Y-99710000D02*
X156000000Y-97755337D01*
X159709000Y-90791000D02*
X159709000Y-89870000D01*
X158750000Y-91750000D02*
X159709000Y-90791000D01*
X158750000Y-91750000D02*
X158750000Y-90160000D01*
D31*
X156000000Y-97750000D02*
X151750000Y-93500000D01*
D32*
%TO.N,/BAT+*%
X156000000Y-104750000D02*
X156750000Y-105500000D01*
X156000000Y-102790000D02*
X156000000Y-104750000D01*
X156750000Y-109750000D02*
X162775000Y-109750000D01*
D31*
%TO.N,/GND*%
X137250000Y-81500000D02*
X139750000Y-79000000D01*
X139750000Y-79000000D02*
X151750000Y-79000000D01*
X151750000Y-79000000D02*
X154215000Y-79000000D01*
X154215000Y-79000000D02*
X156165000Y-80950000D01*
%TO.N,/I2C_SDA*%
X148570000Y-100356500D02*
X148570000Y-90475000D01*
X152367000Y-104153500D02*
X148570000Y-100356500D01*
%TO.N,/I2C_SCL*%
X149750000Y-95881370D02*
X149200000Y-95331370D01*
X149200000Y-91668630D02*
X149750000Y-91118630D01*
X149750000Y-90027240D02*
X149046760Y-89324000D01*
X149750000Y-98996500D02*
X149750000Y-95881370D01*
X149046760Y-89324000D02*
X147181000Y-89324000D01*
X149200000Y-95331370D02*
X149200000Y-91668630D01*
X147181000Y-89324000D02*
X146030000Y-90475000D01*
X149750000Y-91118630D02*
X149750000Y-90027240D01*
X152367000Y-101613500D02*
X149750000Y-98996500D01*
%TO.N,Net-(Q1-G)*%
X153750000Y-93500000D02*
X153750000Y-91250000D01*
X161010000Y-89870000D02*
X161000000Y-89880000D01*
X161000000Y-89880000D02*
X161000000Y-93500000D01*
X161000000Y-93500000D02*
X153750000Y-93500000D01*
%TO.N,/MOSFET_GATE*%
X150552000Y-97258500D02*
X152367000Y-99073500D01*
X150500000Y-95497170D02*
X150552000Y-95549170D01*
X150500000Y-92500000D02*
X150500000Y-95497170D01*
X150552000Y-95549170D02*
X150552000Y-97258500D01*
X151750000Y-91250000D02*
X150500000Y-92500000D01*
%TO.N,/ENC_A*%
X149667500Y-109074000D02*
X152367000Y-111773500D01*
X136650240Y-110384500D02*
X137603760Y-110384500D01*
X135949000Y-109683260D02*
X136650240Y-110384500D01*
X138914260Y-109074000D02*
X149667500Y-109074000D01*
X137250000Y-79000000D02*
X135949000Y-80301000D01*
X137603760Y-110384500D02*
X138914260Y-109074000D01*
X135949000Y-80301000D02*
X135949000Y-109683260D01*
%TO.N,/ENC_SW*%
X151750000Y-84000000D02*
X150000000Y-85750000D01*
X153518000Y-101136740D02*
X153518000Y-105542500D01*
X151890240Y-100462500D02*
X152843760Y-100462500D01*
X150151000Y-95715270D02*
X150151000Y-98723260D01*
X152843760Y-100462500D02*
X153518000Y-101136740D01*
X153518000Y-105542500D02*
X152367000Y-106693500D01*
X150000000Y-95564270D02*
X150151000Y-95715270D01*
X150000000Y-92432900D02*
X150000000Y-95564270D01*
X150151000Y-92281900D02*
X150000000Y-92432900D01*
X150151000Y-89861140D02*
X150151000Y-92281900D01*
X150000000Y-85750000D02*
X150000000Y-89710140D01*
X150000000Y-89710140D02*
X150151000Y-89861140D01*
X150151000Y-98723260D02*
X151890240Y-100462500D01*
%TO.N,/ENC_B*%
X146309286Y-105399000D02*
X138878000Y-97967714D01*
X148532500Y-105399000D02*
X146309286Y-105399000D01*
X138878000Y-97967714D02*
X138878000Y-97500000D01*
X152367000Y-109233500D02*
X148532500Y-105399000D01*
%TO.N,Net-(D1-DIN)*%
X137250000Y-91175000D02*
X137975000Y-91175000D01*
X142100000Y-87050000D02*
X142100000Y-85834314D01*
X146984315Y-80950000D02*
X154335000Y-80950000D01*
X142100000Y-85834314D02*
X146984315Y-80950000D01*
X137975000Y-91175000D02*
X142100000Y-87050000D01*
%TO.N,/LEDA*%
X137250000Y-98950500D02*
X137127000Y-99073500D01*
X137250000Y-93250000D02*
X137250000Y-98950500D01*
%TD*%
M02*
