%TF.GenerationSoftware,KiCad,Pcbnew,9.0.6*%
%TF.CreationDate,2025-12-28T14:18:18-05:00*%
%TF.ProjectId,EspAtomizer-PCB_v3,45737041-746f-46d6-997a-65722d504342,rev?*%
%TF.SameCoordinates,Original*%
%TF.FileFunction,Legend,Top*%
%TF.FilePolarity,Positive*%
%FSLAX46Y46*%
G04 Gerber Fmt 4.6, Leading zero omitted, Abs format (unit mm)*
G04 Created by KiCad (PCBNEW 9.0.6) date 2025-12-28 14:18:18*
%MOMM*%
%LPD*%
G01*
G04 APERTURE LIST*
%ADD10C,0.150000*%
%ADD11C,0.100000*%
%ADD12C,0.120000*%
%ADD13C,0.127000*%
%ADD14C,0.504000*%
G04 APERTURE END LIST*
D10*
X161166666Y-76204819D02*
X161166666Y-76919104D01*
X161166666Y-76919104D02*
X161119047Y-77061961D01*
X161119047Y-77061961D02*
X161023809Y-77157200D01*
X161023809Y-77157200D02*
X160880952Y-77204819D01*
X160880952Y-77204819D02*
X160785714Y-77204819D01*
X162166666Y-77204819D02*
X161595238Y-77204819D01*
X161880952Y-77204819D02*
X161880952Y-76204819D01*
X161880952Y-76204819D02*
X161785714Y-76347676D01*
X161785714Y-76347676D02*
X161690476Y-76442914D01*
X161690476Y-76442914D02*
X161595238Y-76490533D01*
X137083333Y-95284580D02*
X137035714Y-95332200D01*
X137035714Y-95332200D02*
X136892857Y-95379819D01*
X136892857Y-95379819D02*
X136797619Y-95379819D01*
X136797619Y-95379819D02*
X136654762Y-95332200D01*
X136654762Y-95332200D02*
X136559524Y-95236961D01*
X136559524Y-95236961D02*
X136511905Y-95141723D01*
X136511905Y-95141723D02*
X136464286Y-94951247D01*
X136464286Y-94951247D02*
X136464286Y-94808390D01*
X136464286Y-94808390D02*
X136511905Y-94617914D01*
X136511905Y-94617914D02*
X136559524Y-94522676D01*
X136559524Y-94522676D02*
X136654762Y-94427438D01*
X136654762Y-94427438D02*
X136797619Y-94379819D01*
X136797619Y-94379819D02*
X136892857Y-94379819D01*
X136892857Y-94379819D02*
X137035714Y-94427438D01*
X137035714Y-94427438D02*
X137083333Y-94475057D01*
X137464286Y-94475057D02*
X137511905Y-94427438D01*
X137511905Y-94427438D02*
X137607143Y-94379819D01*
X137607143Y-94379819D02*
X137845238Y-94379819D01*
X137845238Y-94379819D02*
X137940476Y-94427438D01*
X137940476Y-94427438D02*
X137988095Y-94475057D01*
X137988095Y-94475057D02*
X138035714Y-94570295D01*
X138035714Y-94570295D02*
X138035714Y-94665533D01*
X138035714Y-94665533D02*
X137988095Y-94808390D01*
X137988095Y-94808390D02*
X137416667Y-95379819D01*
X137416667Y-95379819D02*
X138035714Y-95379819D01*
X162754761Y-84900057D02*
X162659523Y-84852438D01*
X162659523Y-84852438D02*
X162564285Y-84757200D01*
X162564285Y-84757200D02*
X162421428Y-84614342D01*
X162421428Y-84614342D02*
X162326190Y-84566723D01*
X162326190Y-84566723D02*
X162230952Y-84566723D01*
X162278571Y-84804819D02*
X162183333Y-84757200D01*
X162183333Y-84757200D02*
X162088095Y-84661961D01*
X162088095Y-84661961D02*
X162040476Y-84471485D01*
X162040476Y-84471485D02*
X162040476Y-84138152D01*
X162040476Y-84138152D02*
X162088095Y-83947676D01*
X162088095Y-83947676D02*
X162183333Y-83852438D01*
X162183333Y-83852438D02*
X162278571Y-83804819D01*
X162278571Y-83804819D02*
X162469047Y-83804819D01*
X162469047Y-83804819D02*
X162564285Y-83852438D01*
X162564285Y-83852438D02*
X162659523Y-83947676D01*
X162659523Y-83947676D02*
X162707142Y-84138152D01*
X162707142Y-84138152D02*
X162707142Y-84471485D01*
X162707142Y-84471485D02*
X162659523Y-84661961D01*
X162659523Y-84661961D02*
X162564285Y-84757200D01*
X162564285Y-84757200D02*
X162469047Y-84804819D01*
X162469047Y-84804819D02*
X162278571Y-84804819D01*
X163659523Y-84804819D02*
X163088095Y-84804819D01*
X163373809Y-84804819D02*
X163373809Y-83804819D01*
X163373809Y-83804819D02*
X163278571Y-83947676D01*
X163278571Y-83947676D02*
X163183333Y-84042914D01*
X163183333Y-84042914D02*
X163088095Y-84090533D01*
X139666667Y-77657200D02*
X139809524Y-77704819D01*
X139809524Y-77704819D02*
X140047619Y-77704819D01*
X140047619Y-77704819D02*
X140142857Y-77657200D01*
X140142857Y-77657200D02*
X140190476Y-77609580D01*
X140190476Y-77609580D02*
X140238095Y-77514342D01*
X140238095Y-77514342D02*
X140238095Y-77419104D01*
X140238095Y-77419104D02*
X140190476Y-77323866D01*
X140190476Y-77323866D02*
X140142857Y-77276247D01*
X140142857Y-77276247D02*
X140047619Y-77228628D01*
X140047619Y-77228628D02*
X139857143Y-77181009D01*
X139857143Y-77181009D02*
X139761905Y-77133390D01*
X139761905Y-77133390D02*
X139714286Y-77085771D01*
X139714286Y-77085771D02*
X139666667Y-76990533D01*
X139666667Y-76990533D02*
X139666667Y-76895295D01*
X139666667Y-76895295D02*
X139714286Y-76800057D01*
X139714286Y-76800057D02*
X139761905Y-76752438D01*
X139761905Y-76752438D02*
X139857143Y-76704819D01*
X139857143Y-76704819D02*
X140095238Y-76704819D01*
X140095238Y-76704819D02*
X140238095Y-76752438D01*
X140571429Y-76704819D02*
X140809524Y-77704819D01*
X140809524Y-77704819D02*
X141000000Y-76990533D01*
X141000000Y-76990533D02*
X141190476Y-77704819D01*
X141190476Y-77704819D02*
X141428572Y-76704819D01*
X141761905Y-76800057D02*
X141809524Y-76752438D01*
X141809524Y-76752438D02*
X141904762Y-76704819D01*
X141904762Y-76704819D02*
X142142857Y-76704819D01*
X142142857Y-76704819D02*
X142238095Y-76752438D01*
X142238095Y-76752438D02*
X142285714Y-76800057D01*
X142285714Y-76800057D02*
X142333333Y-76895295D01*
X142333333Y-76895295D02*
X142333333Y-76990533D01*
X142333333Y-76990533D02*
X142285714Y-77133390D01*
X142285714Y-77133390D02*
X141714286Y-77704819D01*
X141714286Y-77704819D02*
X142333333Y-77704819D01*
X155333333Y-93954819D02*
X155000000Y-93478628D01*
X154761905Y-93954819D02*
X154761905Y-92954819D01*
X154761905Y-92954819D02*
X155142857Y-92954819D01*
X155142857Y-92954819D02*
X155238095Y-93002438D01*
X155238095Y-93002438D02*
X155285714Y-93050057D01*
X155285714Y-93050057D02*
X155333333Y-93145295D01*
X155333333Y-93145295D02*
X155333333Y-93288152D01*
X155333333Y-93288152D02*
X155285714Y-93383390D01*
X155285714Y-93383390D02*
X155238095Y-93431009D01*
X155238095Y-93431009D02*
X155142857Y-93478628D01*
X155142857Y-93478628D02*
X154761905Y-93478628D01*
X156190476Y-93288152D02*
X156190476Y-93954819D01*
X155952381Y-92907200D02*
X155714286Y-93621485D01*
X155714286Y-93621485D02*
X156333333Y-93621485D01*
D11*
X139488095Y-113957419D02*
X139488095Y-114766942D01*
X139488095Y-114766942D02*
X139535714Y-114862180D01*
X139535714Y-114862180D02*
X139583333Y-114909800D01*
X139583333Y-114909800D02*
X139678571Y-114957419D01*
X139678571Y-114957419D02*
X139869047Y-114957419D01*
X139869047Y-114957419D02*
X139964285Y-114909800D01*
X139964285Y-114909800D02*
X140011904Y-114862180D01*
X140011904Y-114862180D02*
X140059523Y-114766942D01*
X140059523Y-114766942D02*
X140059523Y-113957419D01*
X140440476Y-113957419D02*
X141059523Y-113957419D01*
X141059523Y-113957419D02*
X140726190Y-114338371D01*
X140726190Y-114338371D02*
X140869047Y-114338371D01*
X140869047Y-114338371D02*
X140964285Y-114385990D01*
X140964285Y-114385990D02*
X141011904Y-114433609D01*
X141011904Y-114433609D02*
X141059523Y-114528847D01*
X141059523Y-114528847D02*
X141059523Y-114766942D01*
X141059523Y-114766942D02*
X141011904Y-114862180D01*
X141011904Y-114862180D02*
X140964285Y-114909800D01*
X140964285Y-114909800D02*
X140869047Y-114957419D01*
X140869047Y-114957419D02*
X140583333Y-114957419D01*
X140583333Y-114957419D02*
X140488095Y-114909800D01*
X140488095Y-114909800D02*
X140440476Y-114862180D01*
D10*
X155333333Y-91954819D02*
X155000000Y-91478628D01*
X154761905Y-91954819D02*
X154761905Y-90954819D01*
X154761905Y-90954819D02*
X155142857Y-90954819D01*
X155142857Y-90954819D02*
X155238095Y-91002438D01*
X155238095Y-91002438D02*
X155285714Y-91050057D01*
X155285714Y-91050057D02*
X155333333Y-91145295D01*
X155333333Y-91145295D02*
X155333333Y-91288152D01*
X155333333Y-91288152D02*
X155285714Y-91383390D01*
X155285714Y-91383390D02*
X155238095Y-91431009D01*
X155238095Y-91431009D02*
X155142857Y-91478628D01*
X155142857Y-91478628D02*
X154761905Y-91478628D01*
X156285714Y-91954819D02*
X155714286Y-91954819D01*
X156000000Y-91954819D02*
X156000000Y-90954819D01*
X156000000Y-90954819D02*
X155904762Y-91097676D01*
X155904762Y-91097676D02*
X155809524Y-91192914D01*
X155809524Y-91192914D02*
X155714286Y-91240533D01*
X157511905Y-81954819D02*
X157511905Y-80954819D01*
X157511905Y-80954819D02*
X157750000Y-80954819D01*
X157750000Y-80954819D02*
X157892857Y-81002438D01*
X157892857Y-81002438D02*
X157988095Y-81097676D01*
X157988095Y-81097676D02*
X158035714Y-81192914D01*
X158035714Y-81192914D02*
X158083333Y-81383390D01*
X158083333Y-81383390D02*
X158083333Y-81526247D01*
X158083333Y-81526247D02*
X158035714Y-81716723D01*
X158035714Y-81716723D02*
X157988095Y-81811961D01*
X157988095Y-81811961D02*
X157892857Y-81907200D01*
X157892857Y-81907200D02*
X157750000Y-81954819D01*
X157750000Y-81954819D02*
X157511905Y-81954819D01*
X159035714Y-81954819D02*
X158464286Y-81954819D01*
X158750000Y-81954819D02*
X158750000Y-80954819D01*
X158750000Y-80954819D02*
X158654762Y-81097676D01*
X158654762Y-81097676D02*
X158559524Y-81192914D01*
X158559524Y-81192914D02*
X158464286Y-81240533D01*
D12*
%TO.C,J1*%
X153640000Y-74590000D02*
X153640000Y-75840000D01*
X153940000Y-74890000D02*
X153940000Y-79610000D01*
X153940000Y-76200000D02*
X154550000Y-76200000D01*
X153940000Y-77500000D02*
X154550000Y-77500000D01*
X153940000Y-79610000D02*
X160060000Y-79610000D01*
X154550000Y-75500000D02*
X154550000Y-79000000D01*
X154550000Y-79000000D02*
X159450000Y-79000000D01*
X154890000Y-74590000D02*
X153640000Y-74590000D01*
X155400000Y-74690000D02*
X155400000Y-74890000D01*
X155700000Y-74690000D02*
X155400000Y-74690000D01*
X155700000Y-74790000D02*
X155400000Y-74790000D01*
X155700000Y-74890000D02*
X155700000Y-74690000D01*
X156500000Y-74890000D02*
X156500000Y-75500000D01*
X156500000Y-75500000D02*
X154550000Y-75500000D01*
X156900000Y-78500000D02*
X157100000Y-78500000D01*
X156900000Y-79000000D02*
X156900000Y-78500000D01*
X157000000Y-79000000D02*
X157000000Y-78500000D01*
X157100000Y-78500000D02*
X157100000Y-79000000D01*
X157500000Y-75500000D02*
X157500000Y-74890000D01*
X159450000Y-75500000D02*
X157500000Y-75500000D01*
X159450000Y-79000000D02*
X159450000Y-75500000D01*
X160060000Y-74890000D02*
X153940000Y-74890000D01*
X160060000Y-76200000D02*
X159450000Y-76200000D01*
X160060000Y-77500000D02*
X159450000Y-77500000D01*
X160060000Y-79610000D02*
X160060000Y-74890000D01*
D13*
%TO.C,SW1*%
X154100000Y-113450000D02*
X154100000Y-117050000D01*
X154100000Y-117050000D02*
X163100000Y-117050000D01*
X163100000Y-113450000D02*
X163100000Y-117050000D01*
D12*
%TO.C,J2*%
X158090000Y-107360000D02*
X158090000Y-108610000D01*
X158090000Y-108610000D02*
X159340000Y-108610000D01*
X158190000Y-106550000D02*
X158190000Y-106850000D01*
X158190000Y-106850000D02*
X158390000Y-106850000D01*
X158290000Y-106550000D02*
X158290000Y-106850000D01*
X158390000Y-102190000D02*
X158390000Y-108310000D01*
X158390000Y-105750000D02*
X159000000Y-105750000D01*
X158390000Y-106550000D02*
X158190000Y-106550000D01*
X158390000Y-108310000D02*
X163110000Y-108310000D01*
X159000000Y-102800000D02*
X159000000Y-104750000D01*
X159000000Y-104750000D02*
X158390000Y-104750000D01*
X159000000Y-105750000D02*
X159000000Y-107700000D01*
X159000000Y-107700000D02*
X162500000Y-107700000D01*
X159700000Y-102190000D02*
X159700000Y-102800000D01*
X159700000Y-108310000D02*
X159700000Y-107700000D01*
X161000000Y-102190000D02*
X161000000Y-102800000D01*
X161000000Y-108310000D02*
X161000000Y-107700000D01*
X162000000Y-105150000D02*
X162500000Y-105150000D01*
X162000000Y-105350000D02*
X162000000Y-105150000D01*
X162500000Y-102800000D02*
X159000000Y-102800000D01*
X162500000Y-105250000D02*
X162000000Y-105250000D01*
X162500000Y-105350000D02*
X162000000Y-105350000D01*
X162500000Y-107700000D02*
X162500000Y-102800000D01*
X163110000Y-102190000D02*
X158390000Y-102190000D01*
X163110000Y-108310000D02*
X163110000Y-102190000D01*
%TO.C,C2*%
X136515000Y-91951248D02*
X136515000Y-92473752D01*
X137985000Y-91951248D02*
X137985000Y-92473752D01*
%TO.C,Q1*%
X156500000Y-85050000D02*
X156500000Y-89350000D01*
X161700000Y-89350000D02*
X161700000Y-85050000D01*
X156576703Y-89930000D02*
X156246703Y-90170000D01*
X156246703Y-89690000D01*
X156576703Y-89930000D01*
G36*
X156576703Y-89930000D02*
G01*
X156246703Y-90170000D01*
X156246703Y-89690000D01*
X156576703Y-89930000D01*
G37*
%TO.C,SW2*%
X136950000Y-77400000D02*
X137550000Y-77400000D01*
X137250000Y-77700000D02*
X136950000Y-77400000D01*
X137550000Y-77400000D02*
X137250000Y-77700000D01*
X138650000Y-75600000D02*
X138650000Y-87400000D01*
X142750000Y-75600000D02*
X138650000Y-75600000D01*
X142750000Y-87400000D02*
X138650000Y-87400000D01*
X144250000Y-81500000D02*
X145250000Y-81500000D01*
X144750000Y-81000000D02*
X144750000Y-82000000D01*
X146750000Y-75600000D02*
X150850000Y-75600000D01*
X150850000Y-75600000D02*
X150850000Y-78000000D01*
X150850000Y-80200000D02*
X150850000Y-82800000D01*
X150850000Y-85000000D02*
X150850000Y-87400000D01*
X150850000Y-87400000D02*
X146750000Y-87400000D01*
X147750000Y-81500000D02*
G75*
G02*
X141750000Y-81500000I-3000000J0D01*
G01*
X141750000Y-81500000D02*
G75*
G02*
X147750000Y-81500000I3000000J0D01*
G01*
%TO.C,J4*%
X158090000Y-100360000D02*
X158090000Y-101610000D01*
X158090000Y-101610000D02*
X159340000Y-101610000D01*
X158190000Y-99550000D02*
X158190000Y-99850000D01*
X158190000Y-99850000D02*
X158390000Y-99850000D01*
X158290000Y-99550000D02*
X158290000Y-99850000D01*
X158390000Y-95190000D02*
X158390000Y-101310000D01*
X158390000Y-98750000D02*
X159000000Y-98750000D01*
X158390000Y-99550000D02*
X158190000Y-99550000D01*
X158390000Y-101310000D02*
X163110000Y-101310000D01*
X159000000Y-95800000D02*
X159000000Y-97750000D01*
X159000000Y-97750000D02*
X158390000Y-97750000D01*
X159000000Y-98750000D02*
X159000000Y-100700000D01*
X159000000Y-100700000D02*
X162500000Y-100700000D01*
X159700000Y-95190000D02*
X159700000Y-95800000D01*
X159700000Y-101310000D02*
X159700000Y-100700000D01*
X161000000Y-95190000D02*
X161000000Y-95800000D01*
X161000000Y-101310000D02*
X161000000Y-100700000D01*
X162000000Y-98150000D02*
X162500000Y-98150000D01*
X162000000Y-98350000D02*
X162000000Y-98150000D01*
X162500000Y-95800000D02*
X159000000Y-95800000D01*
X162500000Y-98250000D02*
X162000000Y-98250000D01*
X162500000Y-98350000D02*
X162000000Y-98350000D01*
X162500000Y-100700000D02*
X162500000Y-95800000D01*
X163110000Y-95190000D02*
X158390000Y-95190000D01*
X163110000Y-101310000D02*
X163110000Y-95190000D01*
%TO.C,R4*%
X152522936Y-92765000D02*
X152977064Y-92765000D01*
X152522936Y-94235000D02*
X152977064Y-94235000D01*
%TO.C,J3*%
X139620000Y-89145000D02*
X140950000Y-89145000D01*
X139620000Y-90475000D02*
X139620000Y-89145000D01*
X142220000Y-89145000D02*
X149900000Y-89145000D01*
X142220000Y-91805000D02*
X142220000Y-89145000D01*
X142220000Y-91805000D02*
X149900000Y-91805000D01*
X149900000Y-91805000D02*
X149900000Y-89145000D01*
%TO.C,C5*%
X154490000Y-99500000D02*
X154490000Y-103720000D01*
X154490000Y-103720000D02*
X157510000Y-103720000D01*
X157510000Y-103720000D02*
X157510000Y-99500000D01*
D13*
%TO.C,U3*%
X135857000Y-98184500D02*
X135857000Y-115329500D01*
D11*
X137762000Y-117234500D02*
X151732000Y-117234500D01*
D13*
X137762000Y-117234500D02*
X151732000Y-117234500D01*
X140243000Y-118244500D02*
X140243000Y-117234500D01*
X148738272Y-118744500D02*
X140743000Y-118744500D01*
X149242000Y-117234500D02*
X149238272Y-118244772D01*
X151732000Y-96279500D02*
X137762000Y-96279500D01*
X153637000Y-98184500D02*
X153637000Y-115329500D01*
X135857000Y-98184500D02*
G75*
G02*
X137762000Y-96279500I1905000J0D01*
G01*
X137762000Y-117234500D02*
G75*
G02*
X135857000Y-115329500I0J1905000D01*
G01*
X140743000Y-118744500D02*
G75*
G02*
X140243000Y-118244500I0J500000D01*
G01*
X149238272Y-118244772D02*
G75*
G02*
X148738272Y-118744499I-500018J291D01*
G01*
X151732002Y-96279500D02*
G75*
G02*
X153637002Y-98184500I-1J-1905001D01*
G01*
X153637000Y-115329500D02*
G75*
G02*
X151732000Y-117234500I-1905001J1D01*
G01*
D12*
X145319400Y-101127800D02*
G75*
G02*
X142719400Y-101127800I-1300000J0D01*
G01*
X142719400Y-101127800D02*
G75*
G02*
X145319400Y-101127800I1300000J0D01*
G01*
X147859400Y-101127800D02*
G75*
G02*
X145259400Y-101127800I-1300000J0D01*
G01*
X145259400Y-101127800D02*
G75*
G02*
X147859400Y-101127800I1300000J0D01*
G01*
D14*
X152856000Y-116063500D02*
G75*
G02*
X152352000Y-116063500I-252000J0D01*
G01*
X152352000Y-116063500D02*
G75*
G02*
X152856000Y-116063500I252000J0D01*
G01*
X152856000Y-116063500D02*
G75*
G02*
X152352000Y-116063500I-252000J0D01*
G01*
X152352000Y-116063500D02*
G75*
G02*
X152856000Y-116063500I252000J0D01*
G01*
X153999000Y-116943500D02*
G75*
G02*
X153495000Y-116943500I-252000J0D01*
G01*
X153495000Y-116943500D02*
G75*
G02*
X153999000Y-116943500I252000J0D01*
G01*
D12*
%TO.C,R1*%
X152522936Y-90515000D02*
X152977064Y-90515000D01*
X152522936Y-91985000D02*
X152977064Y-91985000D01*
%TO.C,D1*%
X153650000Y-82650000D02*
X153650000Y-80350000D01*
X156550000Y-82650000D02*
X153650000Y-82650000D01*
X156550000Y-82650000D02*
X156850000Y-82350000D01*
X156850000Y-80350000D02*
X153650000Y-80350000D01*
X156850000Y-80350000D02*
X156850000Y-82350000D01*
%TD*%
M02*
