%TF.GenerationSoftware,KiCad,Pcbnew,9.0.6*%
%TF.CreationDate,2025-12-28T14:18:18-05:00*%
%TF.ProjectId,EspAtomizer-PCB_v3,45737041-746f-46d6-997a-65722d504342,rev?*%
%TF.SameCoordinates,Original*%
%TF.FileFunction,Soldermask,Top*%
%TF.FilePolarity,Negative*%
%FSLAX46Y46*%
G04 Gerber Fmt 4.6, Leading zero omitted, Abs format (unit mm)*
G04 Created by KiCad (PCBNEW 9.0.6) date 2025-12-28 14:18:18*
%MOMM*%
%LPD*%
G01*
G04 APERTURE LIST*
G04 Aperture macros list*
%AMRoundRect*
0 Rectangle with rounded corners*
0 $1 Rounding radius*
0 $2 $3 $4 $5 $6 $7 $8 $9 X,Y pos of 4 corners*
0 Add a 4 corners polygon primitive as box body*
4,1,4,$2,$3,$4,$5,$6,$7,$8,$9,$2,$3,0*
0 Add four circle primitives for the rounded corners*
1,1,$1+$1,$2,$3*
1,1,$1+$1,$4,$5*
1,1,$1+$1,$6,$7*
1,1,$1+$1,$8,$9*
0 Add four rect primitives between the rounded corners*
20,1,$1+$1,$2,$3,$4,$5,0*
20,1,$1+$1,$4,$5,$6,$7,0*
20,1,$1+$1,$6,$7,$8,$9,0*
20,1,$1+$1,$8,$9,$2,$3,0*%
%AMFreePoly0*
4,1,9,2.975000,-2.350000,1.425000,-2.350000,1.425000,-2.100000,-1.650000,-2.100000,-1.650000,2.100000,1.425000,2.100000,1.425000,2.350000,2.975000,2.350000,2.975000,-2.350000,2.975000,-2.350000,$1*%
G04 Aperture macros list end*
%ADD10RoundRect,0.250000X-0.350000X-0.625000X0.350000X-0.625000X0.350000X0.625000X-0.350000X0.625000X0*%
%ADD11O,1.200000X1.750000*%
%ADD12C,1.000000*%
%ADD13RoundRect,0.102000X-0.600000X-1.250000X0.600000X-1.250000X0.600000X1.250000X-0.600000X1.250000X0*%
%ADD14RoundRect,0.250000X0.625000X-0.350000X0.625000X0.350000X-0.625000X0.350000X-0.625000X-0.350000X0*%
%ADD15O,1.750000X1.200000*%
%ADD16RoundRect,0.250000X-0.475000X0.337500X-0.475000X-0.337500X0.475000X-0.337500X0.475000X0.337500X0*%
%ADD17RoundRect,0.175000X-0.175000X-0.400000X0.175000X-0.400000X0.175000X0.400000X-0.175000X0.400000X0*%
%ADD18FreePoly0,90.000000*%
%ADD19C,2.200000*%
%ADD20R,2.000000X2.000000*%
%ADD21C,2.000000*%
%ADD22R,3.200000X2.000000*%
%ADD23RoundRect,0.250000X-0.350000X-0.450000X0.350000X-0.450000X0.350000X0.450000X-0.350000X0.450000X0*%
%ADD24R,1.700000X1.700000*%
%ADD25C,1.700000*%
%ADD26RoundRect,0.250000X0.945000X-0.420000X0.945000X0.420000X-0.945000X0.420000X-0.945000X-0.420000X0*%
%ADD27R,0.700000X0.700000*%
G04 APERTURE END LIST*
D10*
%TO.C,J1*%
X156000000Y-76700000D03*
D11*
X158000000Y-76700000D03*
%TD*%
D12*
%TO.C,SW1*%
X155200000Y-115250000D03*
X162000000Y-115250000D03*
D13*
X156100000Y-112500000D03*
X158600000Y-112500000D03*
X161100000Y-112500000D03*
%TD*%
D14*
%TO.C,J2*%
X160200000Y-106250000D03*
D15*
X160200000Y-104250000D03*
%TD*%
D16*
%TO.C,C2*%
X137250000Y-91175000D03*
X137250000Y-93250000D03*
%TD*%
D17*
%TO.C,Q1*%
X157190000Y-89870000D03*
X158460000Y-89870000D03*
X159740000Y-89870000D03*
X161010000Y-89870000D03*
D18*
X159100000Y-86600000D03*
%TD*%
D19*
%TO.C,REF\u002A\u002A*%
X143750000Y-95000000D03*
%TD*%
D20*
%TO.C,SW2*%
X137250000Y-79000000D03*
D21*
X137250000Y-84000000D03*
X137250000Y-81500000D03*
D22*
X144750000Y-75900000D03*
X144750000Y-87100000D03*
D21*
X151750000Y-84000000D03*
X151750000Y-79000000D03*
%TD*%
D14*
%TO.C,J4*%
X160200000Y-99250000D03*
D15*
X160200000Y-97250000D03*
%TD*%
D23*
%TO.C,R4*%
X151750000Y-93500000D03*
X153750000Y-93500000D03*
%TD*%
D24*
%TO.C,J3*%
X140950000Y-90475000D03*
D25*
X143490000Y-90475000D03*
X146030000Y-90475000D03*
X148570000Y-90475000D03*
%TD*%
D26*
%TO.C,C5*%
X156000000Y-102790000D03*
X156000000Y-99710000D03*
%TD*%
D24*
%TO.C,U3*%
X152367000Y-114313500D03*
D25*
X152367000Y-111773500D03*
X152367000Y-109233500D03*
X152367000Y-106693500D03*
X152367000Y-104153500D03*
X152367000Y-101613500D03*
X152367000Y-99073500D03*
X137127000Y-99073500D03*
X137127000Y-101613500D03*
X137127000Y-104153500D03*
X137127000Y-106693500D03*
X137127000Y-109233500D03*
X137127000Y-111773500D03*
X137127000Y-114313500D03*
X146071400Y-115305000D03*
X143531400Y-115305000D03*
X146071400Y-112765000D03*
X143531400Y-112765000D03*
X146071400Y-110225000D03*
X143531400Y-110225000D03*
X146071400Y-107685000D03*
X143624000Y-107741800D03*
D19*
X146559400Y-101127800D03*
X144019400Y-101127800D03*
%TD*%
D23*
%TO.C,R1*%
X151750000Y-91250000D03*
X153750000Y-91250000D03*
%TD*%
D27*
%TO.C,D1*%
X156165000Y-82050000D03*
X156165000Y-80950000D03*
X154335000Y-80950000D03*
X154335000Y-82050000D03*
%TD*%
M02*
