%TF.GenerationSoftware,KiCad,Pcbnew,9.0.6*%
%TF.CreationDate,2025-12-28T14:18:18-05:00*%
%TF.ProjectId,EspAtomizer-PCB_v3,45737041-746f-46d6-997a-65722d504342,rev?*%
%TF.SameCoordinates,Original*%
%TF.FileFunction,Soldermask,Bot*%
%TF.FilePolarity,Negative*%
%FSLAX46Y46*%
G04 Gerber Fmt 4.6, Leading zero omitted, Abs format (unit mm)*
G04 Created by KiCad (PCBNEW 9.0.6) date 2025-12-28 14:18:18*
%MOMM*%
%LPD*%
G01*
G04 APERTURE LIST*
G04 Aperture macros list*
%AMRoundRect*
0 Rectangle with rounded corners*
0 $1 Rounding radius*
0 $2 $3 $4 $5 $6 $7 $8 $9 X,Y pos of 4 corners*
0 Add a 4 corners polygon primitive as box body*
4,1,4,$2,$3,$4,$5,$6,$7,$8,$9,$2,$3,0*
0 Add four circle primitives for the rounded corners*
1,1,$1+$1,$2,$3*
1,1,$1+$1,$4,$5*
1,1,$1+$1,$6,$7*
1,1,$1+$1,$8,$9*
0 Add four rect primitives between the rounded corners*
20,1,$1+$1,$2,$3,$4,$5,0*
20,1,$1+$1,$4,$5,$6,$7,0*
20,1,$1+$1,$6,$7,$8,$9,0*
20,1,$1+$1,$8,$9,$2,$3,0*%
G04 Aperture macros list end*
%ADD10RoundRect,0.250000X-0.350000X-0.625000X0.350000X-0.625000X0.350000X0.625000X-0.350000X0.625000X0*%
%ADD11O,1.200000X1.750000*%
%ADD12C,1.000000*%
%ADD13RoundRect,0.250000X0.625000X-0.350000X0.625000X0.350000X-0.625000X0.350000X-0.625000X-0.350000X0*%
%ADD14O,1.750000X1.200000*%
%ADD15C,2.200000*%
%ADD16R,2.000000X2.000000*%
%ADD17C,2.000000*%
%ADD18R,3.200000X2.000000*%
%ADD19R,1.700000X1.700000*%
%ADD20C,1.700000*%
%ADD21RoundRect,0.250000X-0.475000X0.337500X-0.475000X-0.337500X0.475000X-0.337500X0.475000X0.337500X0*%
%ADD22RoundRect,0.250000X0.450000X-0.350000X0.450000X0.350000X-0.450000X0.350000X-0.450000X-0.350000X0*%
%ADD23RoundRect,0.250000X-0.350000X-0.450000X0.350000X-0.450000X0.350000X0.450000X-0.350000X0.450000X0*%
%ADD24RoundRect,0.250000X0.337500X0.475000X-0.337500X0.475000X-0.337500X-0.475000X0.337500X-0.475000X0*%
%ADD25RoundRect,0.250000X0.325000X0.450000X-0.325000X0.450000X-0.325000X-0.450000X0.325000X-0.450000X0*%
%ADD26R,1.100000X0.250000*%
G04 APERTURE END LIST*
D10*
%TO.C,J1*%
X156000000Y-76700000D03*
D11*
X158000000Y-76700000D03*
%TD*%
D12*
%TO.C,SW1*%
X155200000Y-115250000D03*
X162000000Y-115250000D03*
%TD*%
D13*
%TO.C,J2*%
X160200000Y-106250000D03*
D14*
X160200000Y-104250000D03*
%TD*%
D15*
%TO.C,REF\u002A\u002A*%
X143750000Y-95000000D03*
%TD*%
D16*
%TO.C,SW2*%
X137250000Y-79000000D03*
D17*
X137250000Y-84000000D03*
X137250000Y-81500000D03*
D18*
X144750000Y-75900000D03*
X144750000Y-87100000D03*
D17*
X151750000Y-84000000D03*
X151750000Y-79000000D03*
%TD*%
D13*
%TO.C,J4*%
X160200000Y-99250000D03*
D14*
X160200000Y-97250000D03*
%TD*%
D19*
%TO.C,J3*%
X140950000Y-90475000D03*
D20*
X143490000Y-90475000D03*
X146030000Y-90475000D03*
X148570000Y-90475000D03*
%TD*%
D19*
%TO.C,U3*%
X152367000Y-114313500D03*
D20*
X152367000Y-111773500D03*
X152367000Y-109233500D03*
X152367000Y-106693500D03*
X152367000Y-104153500D03*
X152367000Y-101613500D03*
X152367000Y-99073500D03*
X137127000Y-99073500D03*
X137127000Y-101613500D03*
X137127000Y-104153500D03*
X137127000Y-106693500D03*
X137127000Y-109233500D03*
X137127000Y-111773500D03*
X137127000Y-114313500D03*
D15*
X146559400Y-101127800D03*
X144019400Y-101127800D03*
%TD*%
D21*
%TO.C,C1*%
X140750000Y-84462500D03*
X140750000Y-86537500D03*
%TD*%
D22*
%TO.C,R2*%
X146250000Y-113250000D03*
X146250000Y-111250000D03*
%TD*%
D23*
%TO.C,R8*%
X147750000Y-106000000D03*
X149750000Y-106000000D03*
%TD*%
D24*
%TO.C,C3*%
X162500000Y-93750000D03*
X160425000Y-93750000D03*
%TD*%
D25*
%TO.C,D2*%
X162775000Y-109750000D03*
X160725000Y-109750000D03*
%TD*%
D23*
%TO.C,R9*%
X147750000Y-104000000D03*
X149750000Y-104000000D03*
%TD*%
D26*
%TO.C,U1*%
X146900000Y-80500000D03*
X146900000Y-81000000D03*
X146900000Y-81500000D03*
X146900000Y-82000000D03*
X146900000Y-82500000D03*
X142600000Y-82500000D03*
X142600000Y-82000000D03*
X142600000Y-81500000D03*
X142600000Y-81000000D03*
X142600000Y-80500000D03*
%TD*%
D22*
%TO.C,R3*%
X143250000Y-113250000D03*
X143250000Y-111250000D03*
%TD*%
M02*
