M48
; DRILL file {KiCad 9.0.6} date 2025-12-28T14:18:28-0500
; FORMAT={-:-/ absolute / metric / decimal}
; #@! TF.CreationDate,2025-12-28T14:18:28-05:00
; #@! TF.GenerationSoftware,Kicad,Pcbnew,9.0.6
; #@! TF.FileFunction,Plated,1,2,PTH
FMAT,2
METRIC
; #@! TA.AperFunction,Plated,PTH,ViaDrill
T1C0.300
; #@! TA.AperFunction,Plated,PTH,ViaDrill
T2C0.500
; #@! TA.AperFunction,Plated,PTH,ComponentDrill
T3C0.750
; #@! TA.AperFunction,Plated,PTH,ViaDrill
T4C0.800
; #@! TA.AperFunction,Plated,PTH,ComponentDrill
T5C0.889
; #@! TA.AperFunction,Plated,PTH,ComponentDrill
T6C1.000
; #@! TA.AperFunction,Plated,PTH,ComponentDrill
T7C1.300
; #@! TA.AperFunction,Plated,PTH,ComponentDrill
T8C1.500
%
G90
G05
T1
X138.878Y-97.5
X142.849Y-106.0
T2
X156.0Y-97.75
X156.1Y-112.5
X156.75Y-105.5
X156.75Y-109.75
X158.74Y-112.64
X158.75Y-91.75
X162.775Y-109.75
T3
X156.0Y-76.7
X158.0Y-76.7
X160.2Y-97.25
X160.2Y-99.25
X160.2Y-104.25
X160.2Y-106.25
T4
X159.1Y-86.6
T5
X137.127Y-114.313
T6
X137.127Y-99.073
X137.127Y-101.614
X137.127Y-104.153
X137.127Y-106.694
X137.127Y-109.233
X137.127Y-111.773
X137.25Y-79.0
X137.25Y-81.5
X137.25Y-84.0
X140.95Y-90.475
X143.49Y-90.475
X146.03Y-90.475
X148.57Y-90.475
X151.75Y-79.0
X151.75Y-84.0
X152.367Y-99.073
X152.367Y-101.614
X152.367Y-104.153
X152.367Y-106.694
X152.367Y-109.233
X152.367Y-111.773
X152.367Y-114.313
T7
X144.019Y-101.128
X146.559Y-101.128
T8
G00X144.1Y-75.9
M15
G01X145.4Y-75.9
M16
G05
G00X144.1Y-87.1
M15
G01X145.4Y-87.1
M16
G05
M30
